<svg xmlns="http://www.w3.org/2000/svg" viewBox="0 0 1600 1200"><defs><style>.a{fill:#0e6895;}.b{fill:#239ad6;}.c{fill:#fff;}.d{fill:#e63222;}.e{fill:#eb5c40;}.f{fill:#b62c18;}.g{fill:#feeee7;}.h{fill:#fbbc37;}.i{fill:#d09526;}.j{fill:#d09428;}.k{fill:#d09425;}.l{fill:none;stroke:#d09526;stroke-miterlimit:10;stroke-width:3.22px;}.m{fill:#b7791e;}.n{fill:#fefeff;}.o{fill:#ffd600;}.p{fill:#3c3c3b;}</style></defs><title>Estamos trabajando._3</title><rect class="a" width="1600" height="1200"/><circle class="b" cx="1195.91" cy="600" r="321.88"/><rect class="c" x="997.79" y="424.74" width="396.25" height="350.53"/><path class="b" d="M1029.21,455.77V679.65h6.49q159.65,0,319.28.12c4.47,0,5.39-1.46,5.38-5.62q-.16-106.26-.11-212.52c0-1.9-.22-3.8-.35-5.86Z"/><path class="c" d="M1020.21,450.07h350.92c.13,2.19.36,4.21.36,6.22q0,112.76.12,225.52c0,4.41-1,6-5.71,6q-169.39-.22-338.8-.13h-6.89ZM1290.05,569.9,1362,642.38a30.2,30.2,0,0,0,.66-3.75q.09-87.43.2-174.86c0-4.48-2-5-5.68-5q-161.11.1-322.22,0c-4.67,0-6.19,1.22-6.18,6.09.15,59,.08,118,.1,176.95,0,1.58.3,3.16.61,6.33L1134.26,542c2.21,2.09,3.86,3.57,5.42,5.15q41.49,41.86,82.91,83.81c3.06,3.11,5,3,7.9-.11,9.59-10,19.48-19.69,29.17-29.59C1269.7,591,1279.64,580.64,1290.05,569.9Z"/><path class="c" d="M1264.28,530.13c.18-15-12-27.83-26.57-28.08-15.76-.28-28.35,11.77-28.47,27.24a27.52,27.52,0,1,0,55,.84Z"/><path class="c" d="M48.69,582.37V501.82H65.06v66.73H96.21v13.82Z"/><path class="c" d="M108.67,541.7a51.89,51.89,0,0,1,2.66-16.88,36,36,0,0,1,7.68-13.2,33.71,33.71,0,0,1,11.3-8.1,44.82,44.82,0,0,1,17.95-3.45,42.12,42.12,0,0,1,20.28,4.7,32.51,32.51,0,0,1,13.71,14.76,52.85,52.85,0,0,1,.14,44.49,33.39,33.39,0,0,1-14,14.93,44.06,44.06,0,0,1-41,0,32.88,32.88,0,0,1-13.93-14.7Q108.66,554.62,108.67,541.7ZM148,571.38a18.11,18.11,0,0,0,14.55-6.85q7.2-8.44,7.2-22.49a39,39,0,0,0-3.26-16.57q-3.25-7-8.1-10a19.73,19.73,0,0,0-10.51-3,18.35,18.35,0,0,0-14.73,6.85q-7.08,8.45-7.08,22.89a39.11,39.11,0,0,0,3,15.92,22.25,22.25,0,0,0,8,9.91A19.67,19.67,0,0,0,148,571.38Z"/><path class="c" d="M289,504l-1.48,13.42a34.79,34.79,0,0,0-8-2.72,39.8,39.8,0,0,0-8.69-1.07q-6.24,0-9.55,2.77a8.22,8.22,0,0,0-3.31,6.4,7.9,7.9,0,0,0,1.84,5.07q1.85,2.29,7.17,4.45l12.18,5a22.76,22.76,0,0,1,10.56,8.33,22.19,22.19,0,0,1,3.82,12.8A23.36,23.36,0,0,1,291,569.77a22.36,22.36,0,0,1-6.77,7.76,27.42,27.42,0,0,1-9.69,4.22,50.82,50.82,0,0,1-11.66,1.3,67.57,67.57,0,0,1-20.11-3.23L244.21,565a36.77,36.77,0,0,0,8.61,3.6,34.48,34.48,0,0,0,9.4,1.39q7.08,0,10.79-3.15a9.35,9.35,0,0,0,3.71-7.33,8.24,8.24,0,0,0-2-5.53,17.64,17.64,0,0,0-6.48-4.27l-11.16-4.82a34.54,34.54,0,0,1-8-4.59,20.37,20.37,0,0,1-5.69-7,22.71,22.71,0,0,1,5.35-25.89Q256,501,270.1,501A64.59,64.59,0,0,1,289,504Z"/><path class="c" d="M313.26,582.37V502.22h47.63v13.43H329.63v19.09h28.6v13.14h-28.6V569h31.55v13.42Z"/><path class="c" d="M381.56,582.37V501.82h19.6L433,563.57V501.82h14.61v80.55H427.9l-31.83-61.74v61.74Z"/><path class="c" d="M525.32,501.94v13.71H501.93v66.72H485.56V515.65H462.73V501.94Z"/><path class="c" d="M540.61,582.37V501.82H557v80.55Z"/><path class="c" d="M578.68,582.37V501.82h26.05l19.32,61.24,19.88-61.24h25.49v80.55H654V515.25l-22.83,67.12H616l-22.31-67.12v67.12Z"/><path class="c" d="M687.31,541.7A51.9,51.9,0,0,1,690,524.82a36.15,36.15,0,0,1,7.67-13.2,33.81,33.81,0,0,1,11.3-8.1,44.87,44.87,0,0,1,18-3.45,42.17,42.17,0,0,1,20.28,4.7,32.61,32.61,0,0,1,13.71,14.76A52.85,52.85,0,0,1,761,564,33.39,33.39,0,0,1,747,579a44.06,44.06,0,0,1-41,0A33,33,0,0,1,692,564.25Q687.32,554.62,687.31,541.7Zm39.37,29.68a18.13,18.13,0,0,0,14.56-6.85q7.2-8.44,7.19-22.49a39,39,0,0,0-3.25-16.57q-3.25-7-8.1-10a19.73,19.73,0,0,0-10.51-3,18.35,18.35,0,0,0-14.73,6.85q-7.08,8.45-7.08,22.89a38.94,38.94,0,0,0,3,15.92,22.18,22.18,0,0,0,8,9.91A19.66,19.66,0,0,0,726.68,571.38Z"/><path class="c" d="M830.79,504l-1.47,13.42a35,35,0,0,0-8-2.72,39.8,39.8,0,0,0-8.69-1.07q-6.24,0-9.55,2.77a8.19,8.19,0,0,0-3.31,6.4,7.9,7.9,0,0,0,1.84,5.07c1.23,1.53,3.61,3,7.16,4.45l12.18,5a22.74,22.74,0,0,1,10.57,8.33,22.19,22.19,0,0,1,3.82,12.8,23.47,23.47,0,0,1-2.63,11.36,22.46,22.46,0,0,1-6.77,7.76,27.5,27.5,0,0,1-9.69,4.22,50.84,50.84,0,0,1-11.67,1.3,67.62,67.62,0,0,1-20.11-3.23L786,565a36.77,36.77,0,0,0,8.61,3.6A34.42,34.42,0,0,0,804,570q7.08,0,10.79-3.15a9.38,9.38,0,0,0,3.71-7.33,8.24,8.24,0,0,0-2-5.53,17.61,17.61,0,0,0-6.49-4.27l-11.16-4.82a34.66,34.66,0,0,1-8-4.59,20.37,20.37,0,0,1-5.69-7,22.66,22.66,0,0,1,5.35-25.89q7.31-6.45,21.41-6.46A64.54,64.54,0,0,1,830.79,504Z"/><path class="c" d="M75.28,688.12V643.79h26.35v7.43H84.33v10.55h15.82V669H84.33V680.7h17.45v7.42Z"/><path class="c" d="M133,655.66l-.59,6.55a20,20,0,0,0-7.08-1.5,7.33,7.33,0,0,0-4.48,1.11,3.13,3.13,0,0,0-1.44,2.46,2.3,2.3,0,0,0,.86,1.79,2.88,2.88,0,0,0,1.52.81l.31.06,6,2.1a9.18,9.18,0,0,1,4.64,3.39,9.57,9.57,0,0,1,1.66,5.7,9.47,9.47,0,0,1-1,4.65,10.33,10.33,0,0,1-2.62,3.12,11.72,11.72,0,0,1-3.15,1.84,18.11,18.11,0,0,1-6.48,1,36.71,36.71,0,0,1-10.18-1.48l.53-7.14a22.69,22.69,0,0,0,8.33,2.07,7.65,7.65,0,0,0,4.76-1.26,3,3,0,0,0,1.16-2.56,2.82,2.82,0,0,0-.53-1.79,3.36,3.36,0,0,0-1.69-1.06l-3.73-1.2c-3.38-1.08-5.7-2.4-7-3.94a8.93,8.93,0,0,1-1.88-5.83,8.59,8.59,0,0,1,3.07-6.86q3.86-3.28,10.15-3.29A34.54,34.54,0,0,1,133,655.66Z"/><path class="c" d="M146.48,661.62h-6.29v-6.39h6.39v-6.77l8.24-2.73v9.5h7.7v6.39h-7.7v12.09q0,4.35.75,5.58a4.62,4.62,0,0,0,4.26,2.06,9.9,9.9,0,0,0,3.07-.5l.22,6.83a18.87,18.87,0,0,1-5.83.82,14.24,14.24,0,0,1-4.15-.55,9.24,9.24,0,0,1-3-1.54,8.38,8.38,0,0,1-2-2.22,11.81,11.81,0,0,1-1.25-3.59,25.74,25.74,0,0,1-.38-5.1Z"/><path class="c" d="M192.16,688.12l-.22-4.89a8.84,8.84,0,0,1-4,3.9,13.2,13.2,0,0,1-6.47,1.59,12.88,12.88,0,0,1-5.73-1.29,9.42,9.42,0,0,1-4.06-3.68,10.55,10.55,0,0,1-1.42-5.5,9.14,9.14,0,0,1,5.11-8.46q3.91-2.16,11.81-2.16c1.31,0,2.81.08,4.48.22,0-.4,0-.7,0-.91a6.29,6.29,0,0,0-1.82-4.81q-1.81-1.7-5.58-1.7a15.38,15.38,0,0,0-5.51,1.06,17.34,17.34,0,0,0-4.73,2.63l-.22-7.42a21.43,21.43,0,0,1,5-1.57,31.46,31.46,0,0,1,6.61-.72,19.13,19.13,0,0,1,7.07,1.16,10.93,10.93,0,0,1,4.71,3.51,9.62,9.62,0,0,1,1.69,4.34,51.21,51.21,0,0,1,.44,7.85v4.88l.1,4.83.12,5.07.16,2.07Zm-.44-15.07q-1.6-.12-2.16-.12a27,27,0,0,0-5.75.56,6.84,6.84,0,0,0-3.81,1.93,4.6,4.6,0,0,0-1.19,3.11,4,4,0,0,0,1.35,3.11,5.37,5.37,0,0,0,3.73,1.22,7.62,7.62,0,0,0,4.09-1.24,7.18,7.18,0,0,0,2.86-3.21A13.35,13.35,0,0,0,191.72,673.05Z"/><path class="c" d="M218.44,655.07l.22,5A11.4,11.4,0,0,1,223,656a12.6,12.6,0,0,1,6-1.45,10.23,10.23,0,0,1,6.14,1.78,10,10,0,0,1,3.1,4.08,8.58,8.58,0,0,1,1.85-2.64,11.67,11.67,0,0,1,3.92-2.41,13.34,13.34,0,0,1,4.82-.91,10.15,10.15,0,0,1,5.14,1.26,8.88,8.88,0,0,1,3.35,3.22,13.75,13.75,0,0,1,1.35,4.39A35.12,35.12,0,0,1,259,669v19.08h-8.61v-18.2a18.08,18.08,0,0,0-.5-5.06,4.44,4.44,0,0,0-1.74-2.35,4.81,4.81,0,0,0-2.71-.83,5.46,5.46,0,0,0-3.26,1.14,6.65,6.65,0,0,0-2.32,3.45,14.34,14.34,0,0,0-.75,4.46v17.39h-8.62V668.29a7.44,7.44,0,0,0-1.41-5,4.47,4.47,0,0,0-3.54-1.63,5.71,5.71,0,0,0-4.45,2.4q-2,2.38-2,7.47v16.57h-8.61V663.25l-.13-5.49c0-1-.07-1.86-.16-2.69Z"/><path class="c" d="M302.68,672a19.52,19.52,0,0,1-1,6.06,15.43,15.43,0,0,1-3.06,5.44,16.46,16.46,0,0,1-5.35,3.93,17.88,17.88,0,0,1-7.76,1.58,16.73,16.73,0,0,1-12.4-4.84,17,17,0,0,1-4.83-12.52q0-7.8,4.83-12.69a16.72,16.72,0,0,1,12.43-4.88A16.53,16.53,0,0,1,297.9,659Q302.68,663.87,302.68,672Zm-25.34-.53q0,5.41,2.35,8.2a7.21,7.21,0,0,0,5.73,2.79,7.13,7.13,0,0,0,6.14-3,12.89,12.89,0,0,0,2.19-7.74,14.5,14.5,0,0,0-2.1-7.7,6.7,6.7,0,0,0-6.08-3.45,7,7,0,0,0-3.19.71,7.31,7.31,0,0,0-2.48,2,11.11,11.11,0,0,0-1.69,3A15.2,15.2,0,0,0,277.34,671.49Z"/><path class="c" d="M332.41,655.66l-.6,6.55a20,20,0,0,0-7.08-1.5,7.35,7.35,0,0,0-4.48,1.11,3.13,3.13,0,0,0-1.44,2.46,2.33,2.33,0,0,0,.86,1.79,2.91,2.91,0,0,0,1.52.81l.32.06,6,2.1a9.22,9.22,0,0,1,4.64,3.39,9.64,9.64,0,0,1,1.66,5.7,9.46,9.46,0,0,1-1,4.65,10.31,10.31,0,0,1-2.61,3.12,12,12,0,0,1-3.15,1.84,18.11,18.11,0,0,1-6.48,1,36.78,36.78,0,0,1-10.19-1.48l.54-7.14a22.64,22.64,0,0,0,8.33,2.07,7.67,7.67,0,0,0,4.76-1.26,3,3,0,0,0,1.16-2.56,2.88,2.88,0,0,0-.53-1.79,3.4,3.4,0,0,0-1.69-1.06l-3.73-1.2c-3.39-1.08-5.7-2.4-7-3.94a9,9,0,0,1-1.88-5.83,8.62,8.62,0,0,1,3.07-6.86q3.85-3.28,10.15-3.29A34.61,34.61,0,0,1,332.41,655.66Z"/><path class="c" d="M366.33,661.62H360v-6.39h6.39v-6.77l8.24-2.73v9.5h7.7v6.39h-7.7v12.09q0,4.35.75,5.58a4.62,4.62,0,0,0,4.26,2.06,9.9,9.9,0,0,0,3.07-.5l.22,6.83a18.87,18.87,0,0,1-5.83.82A14.24,14.24,0,0,1,373,688a9.24,9.24,0,0,1-3-1.54,8.38,8.38,0,0,1-2-2.22,11.81,11.81,0,0,1-1.25-3.59,25.74,25.74,0,0,1-.38-5.1Z"/><path class="c" d="M391,655.07h7.87l.15,8.39a11.39,11.39,0,0,1,3.48-6.34,8.8,8.8,0,0,1,6-2.33,11.94,11.94,0,0,1,2.35.22v8.08a5.4,5.4,0,0,0-2.63-.53,7.81,7.81,0,0,0-3.9.9,7.69,7.69,0,0,0-2.58,2.43,9.94,9.94,0,0,0-1.41,3.43,26.25,26.25,0,0,0-.41,5.2v13.6h-8.61v-23L391,656Z"/><path class="c" d="M437.13,688.12l-.22-4.89a8.86,8.86,0,0,1-4,3.9,13.25,13.25,0,0,1-6.47,1.59,12.89,12.89,0,0,1-5.74-1.29,9.4,9.4,0,0,1-4-3.68,10.56,10.56,0,0,1-1.43-5.5,9.14,9.14,0,0,1,5.11-8.46q3.92-2.16,11.81-2.16c1.31,0,2.81.08,4.48.22,0-.4,0-.7,0-.91a6.29,6.29,0,0,0-1.82-4.81q-1.81-1.7-5.57-1.7a15.39,15.39,0,0,0-5.52,1.06,17.49,17.49,0,0,0-4.73,2.63l-.22-7.42a21.38,21.38,0,0,1,5-1.57,31.32,31.32,0,0,1,6.61-.72,19.11,19.11,0,0,1,7.06,1.16,10.93,10.93,0,0,1,4.71,3.51,9.74,9.74,0,0,1,1.7,4.34,52.54,52.54,0,0,1,.44,7.85v4.88l.09,4.83.12,5.07.16,2.07Zm-.44-15.07q-1.59-.12-2.16-.12a27,27,0,0,0-5.75.56,6.87,6.87,0,0,0-3.81,1.93,4.6,4.6,0,0,0-1.19,3.11,4,4,0,0,0,1.35,3.11,5.37,5.37,0,0,0,3.73,1.22,7.62,7.62,0,0,0,4.09-1.24,7.18,7.18,0,0,0,2.86-3.21A13.35,13.35,0,0,0,436.69,673.05Z"/><path class="c" d="M455.55,688.12V640H464v19.83a16.25,16.25,0,0,1,2.41-2.66,12.65,12.65,0,0,1,3.52-2,12.84,12.84,0,0,1,4.44-.72,12.23,12.23,0,0,1,9.58,4.25q3.77,4.24,3.76,12.36a24.83,24.83,0,0,1-1.63,9.4,12.44,12.44,0,0,1-4.81,6,13.61,13.61,0,0,1-13.14.66,11.88,11.88,0,0,1-4.42-3.88v4.82Zm8.55-16.42c0,3.43.73,6,2.19,7.7a6.71,6.71,0,0,0,5.24,2.55,6.52,6.52,0,0,0,5.15-2.55c1.43-1.71,2.15-4.29,2.15-7.76s-.69-6-2.06-7.63a6.33,6.33,0,0,0-5.09-2.49,6.83,6.83,0,0,0-5.34,2.6C464.85,665.86,464.1,668.38,464.1,671.7Z"/><path class="c" d="M517.08,688.12l-.22-4.89a8.94,8.94,0,0,1-4,3.9,13.22,13.22,0,0,1-6.47,1.59,12.84,12.84,0,0,1-5.73-1.29,9.37,9.37,0,0,1-4.06-3.68,10.55,10.55,0,0,1-1.42-5.5,9.15,9.15,0,0,1,5.1-8.46q3.92-2.16,11.81-2.16c1.32,0,2.81.08,4.48.22,0-.4,0-.7,0-.91a6.29,6.29,0,0,0-1.82-4.81q-1.81-1.7-5.58-1.7a15.38,15.38,0,0,0-5.51,1.06,17.34,17.34,0,0,0-4.73,2.63l-.22-7.42a21.43,21.43,0,0,1,5-1.57,31.46,31.46,0,0,1,6.61-.72,19.17,19.17,0,0,1,7.07,1.16,10.93,10.93,0,0,1,4.71,3.51,9.62,9.62,0,0,1,1.69,4.34,52.54,52.54,0,0,1,.44,7.85v4.88l.09,4.83.13,5.07.16,2.07Zm-.44-15.07q-1.6-.12-2.16-.12a27,27,0,0,0-5.75.56,6.8,6.8,0,0,0-3.81,1.93,4.6,4.6,0,0,0-1.19,3.11,4,4,0,0,0,1.35,3.11,5.34,5.34,0,0,0,3.72,1.22,7.6,7.6,0,0,0,4.09-1.24,7.2,7.2,0,0,0,2.87-3.21A13.53,13.53,0,0,0,516.64,673.05Z"/><path class="c" d="M530.29,701.4l.32-6.14a5.28,5.28,0,0,0,.84.07,4,4,0,0,0,3.67-1.7c.54-.83.81-2.4.81-4.69V655.07h8.62v35.06a17.61,17.61,0,0,1-.69,5.18,9.47,9.47,0,0,1-2.05,3.7,8.61,8.61,0,0,1-3.34,2.19,13,13,0,0,1-4.54.74A10.66,10.66,0,0,1,530.29,701.4Zm5.64-52.35V641h8.62v8.08Z"/><path class="c" d="M575.69,688.12l-.22-4.89a8.89,8.89,0,0,1-4,3.9,13.22,13.22,0,0,1-6.47,1.59,12.84,12.84,0,0,1-5.73-1.29,9.42,9.42,0,0,1-4.06-3.68,10.55,10.55,0,0,1-1.42-5.5,9.15,9.15,0,0,1,5.1-8.46q3.92-2.16,11.81-2.16c1.32,0,2.81.08,4.48.22,0-.4,0-.7,0-.91a6.29,6.29,0,0,0-1.82-4.81q-1.81-1.7-5.58-1.7a15.38,15.38,0,0,0-5.51,1.06,17.34,17.34,0,0,0-4.73,2.63l-.22-7.42a21.43,21.43,0,0,1,5-1.57,31.46,31.46,0,0,1,6.61-.72,19.17,19.17,0,0,1,7.07,1.16,10.93,10.93,0,0,1,4.71,3.51,9.62,9.62,0,0,1,1.69,4.34,52.54,52.54,0,0,1,.44,7.85v4.88L583,681l.12,5.07.16,2.07Zm-.44-15.07q-1.61-.12-2.16-.12a27,27,0,0,0-5.75.56,6.8,6.8,0,0,0-3.81,1.93,4.6,4.6,0,0,0-1.19,3.11,4,4,0,0,0,1.35,3.11,5.35,5.35,0,0,0,3.73,1.22,7.59,7.59,0,0,0,4.08-1.24,7.2,7.2,0,0,0,2.87-3.21A13.53,13.53,0,0,0,575.25,673.05Z"/><path class="c" d="M602.19,655.07l.22,5q3.54-5.57,10.68-5.57a14.08,14.08,0,0,1,4.84.78,9.57,9.57,0,0,1,3.52,2.15,9.15,9.15,0,0,1,2.07,3,16.75,16.75,0,0,1,1,4.6q.13,1.41.16,7.46v15.6h-8.55V671.55c0-3.59-.31-6-.94-7.27a5,5,0,0,0-4.79-2.82,7.19,7.19,0,0,0-3.95,1.19,6.8,6.8,0,0,0-2.7,3.38,18.93,18.93,0,0,0-.84,6.43v15.66h-8.62V661.59q0-3.42-.28-6.52Z"/><path class="c" d="M658.08,659.83V640h8.45v48.12h-8.14V683.3a11.79,11.79,0,0,1-4.39,3.85,12.86,12.86,0,0,1-6,1.41,13.05,13.05,0,0,1-4.87-.86,12.45,12.45,0,0,1-3.51-2.05,13.87,13.87,0,0,1-2.54-3.06,16.82,16.82,0,0,1-1.93-4.89,26.89,26.89,0,0,1-.75-6.5q0-7.74,3.56-12.23a11.72,11.72,0,0,1,9.72-4.5,12.33,12.33,0,0,1,5.83,1.29A14.21,14.21,0,0,1,658.08,659.83Zm-7.71,1.69a6.34,6.34,0,0,0-5,2.49c-1.37,1.66-2.06,4.21-2.06,7.63s.73,6.16,2.21,7.82a6.54,6.54,0,0,0,10.32-.06q2.19-2.56,2.19-7.6a12.73,12.73,0,0,0-2-7.38A6.45,6.45,0,0,0,650.37,661.52Z"/><path class="c" d="M710.2,672a19.52,19.52,0,0,1-1,6.06,15.56,15.56,0,0,1-3.05,5.44,16.61,16.61,0,0,1-5.36,3.93A17.84,17.84,0,0,1,693,689a16.76,16.76,0,0,1-12.41-4.84,17,17,0,0,1-4.82-12.52q0-7.8,4.82-12.69a16.75,16.75,0,0,1,12.44-4.88A16.56,16.56,0,0,1,705.43,659Q710.2,663.87,710.2,672Zm-25.34-.53q0,5.41,2.35,8.2a7.24,7.24,0,0,0,5.73,2.79,7.13,7.13,0,0,0,6.14-3,12.89,12.89,0,0,0,2.2-7.74,14.5,14.5,0,0,0-2.1-7.7,6.71,6.71,0,0,0-6.08-3.45,7.07,7.07,0,0,0-3.2.71,7.27,7.27,0,0,0-2.47,2,10.85,10.85,0,0,0-1.69,3A15,15,0,0,0,684.86,671.49Z"/><path class="c" d="M768.82,674.24H746.45a8.13,8.13,0,0,0,1.36,4.18,8,8,0,0,0,3.27,2.93,11.21,11.21,0,0,0,4.92,1,18.77,18.77,0,0,0,5.2-.73,25.25,25.25,0,0,0,5.45-2.37l.1,7a14.11,14.11,0,0,1-4.5,1.72,27,27,0,0,1-6.91.88,20.14,20.14,0,0,1-9.16-2,13.21,13.21,0,0,1-6-6,20.42,20.42,0,0,1-2.07-9.39,20.9,20.9,0,0,1,2-9.31,13.59,13.59,0,0,1,5.78-6.09,17.29,17.29,0,0,1,8.37-2.05,14.19,14.19,0,0,1,8.36,2.42,12.76,12.76,0,0,1,4.88,6.6,29.92,29.92,0,0,1,1.39,9.43C768.91,672.88,768.88,673.47,768.82,674.24Zm-22.44-6h14.48c-.13-2.74-.83-4.78-2.1-6.14a6.64,6.64,0,0,0-5.08-2,6,6,0,0,0-4.6,1.79A10.17,10.17,0,0,0,746.38,668.29Z"/><path class="c" d="M786.29,655.07l.22,5q3.54-5.57,10.69-5.57a14.16,14.16,0,0,1,4.84.78,9.57,9.57,0,0,1,3.52,2.15,9.15,9.15,0,0,1,2.07,3,16.75,16.75,0,0,1,1,4.6c.08.94.14,3.43.16,7.46v15.6h-8.56V671.55c0-3.59-.31-6-.94-7.27a5,5,0,0,0-4.79-2.82,7.22,7.22,0,0,0-4,1.19,6.78,6.78,0,0,0-2.69,3.38,18.89,18.89,0,0,0-.85,6.43v15.66H778.4V661.59c0-2.28-.1-4.45-.28-6.52Z"/><path class="c" d="M212.87,732.66l-.6,6.55a19.84,19.84,0,0,0-7.08-1.51,7.33,7.33,0,0,0-4.48,1.11,3.13,3.13,0,0,0-1.44,2.46,2.32,2.32,0,0,0,.86,1.79,2.91,2.91,0,0,0,1.52.81l.31.07,6,2.1a9.15,9.15,0,0,1,4.64,3.38,9.67,9.67,0,0,1,1.66,5.7,9.46,9.46,0,0,1-1,4.65,10.45,10.45,0,0,1-2.61,3.12,12.09,12.09,0,0,1-3.15,1.85,18.38,18.38,0,0,1-6.49,1,37.12,37.12,0,0,1-10.18-1.47l.53-7.15a22.68,22.68,0,0,0,8.34,2.07,7.74,7.74,0,0,0,4.76-1.25,3,3,0,0,0,1.16-2.57,2.88,2.88,0,0,0-.53-1.79,3.39,3.39,0,0,0-1.7-1.06l-3.72-1.19c-3.39-1.09-5.71-2.4-7-3.95a9,9,0,0,1-1.88-5.83,8.6,8.6,0,0,1,3.07-6.86q3.85-3.28,10.15-3.29A34.21,34.21,0,0,1,212.87,732.66Z"/><path class="c" d="M223.77,732.06h8.61v16.26l.06,2.92a9.62,9.62,0,0,0,1.13,4.94,5.32,5.32,0,0,0,4.67,2.39,6,6,0,0,0,3.23-.9,6.61,6.61,0,0,0,2.3-2.42,12.45,12.45,0,0,0,1.27-4,29.13,29.13,0,0,0,.19-4V732.06h8.61v20.21l.22,10.9.22,1.94H246l-.22-5a10.86,10.86,0,0,1-4.25,4,13.06,13.06,0,0,1-6.43,1.52,13.87,13.87,0,0,1-4.67-.73,9.85,9.85,0,0,1-3.37-1.93,8.26,8.26,0,0,1-2-2.6,14.87,14.87,0,0,1-1-4.26,67,67,0,0,1-.25-7.27Z"/><path class="c" d="M265.4,765.11V717h8.46v19.83a16.25,16.25,0,0,1,2.41-2.66,12.62,12.62,0,0,1,3.52-2,12.84,12.84,0,0,1,4.44-.72,12.22,12.22,0,0,1,9.58,4.24q3.76,4.24,3.76,12.36a24.8,24.8,0,0,1-1.63,9.4,12.49,12.49,0,0,1-4.8,6,13.66,13.66,0,0,1-13.15.65,11.77,11.77,0,0,1-4.41-3.88v4.82ZM274,748.7c0,3.42.73,6,2.19,7.69a6.71,6.71,0,0,0,5.24,2.55,6.52,6.52,0,0,0,5.15-2.55q2.14-2.55,2.15-7.76T286.62,741a6.33,6.33,0,0,0-5.09-2.49,6.82,6.82,0,0,0-5.34,2.6Q274,743.72,274,748.7Z"/><path class="c" d="M316,726.05h-8.61V718H316Zm-8.61,39.06V732.06H316v33.05Z"/><path class="c" d="M327.42,732.06h7.87l.15,8.4a11.42,11.42,0,0,1,3.48-6.35,8.81,8.81,0,0,1,6-2.33,12.08,12.08,0,0,1,2.35.22v8.08a5.59,5.59,0,0,0-2.64-.53,7.71,7.71,0,0,0-3.9.91,7.5,7.5,0,0,0-2.58,2.43,9.78,9.78,0,0,0-1.41,3.43,26.11,26.11,0,0,0-.41,5.2v13.59h-8.61v-23l-.22-9.12Z"/><path class="c" d="M397.38,732.81l-.72,6.9a11,11,0,0,0-5.21-1.13,8.86,8.86,0,0,0-6.64,2.76,9.76,9.76,0,0,0-2.66,7.08,11.46,11.46,0,0,0,1.14,5.13,8.25,8.25,0,0,0,3.29,3.57,9.34,9.34,0,0,0,4.81,1.26,13.29,13.29,0,0,0,3.23-.44,14.71,14.71,0,0,0,3-1.07l.37,7.21a23.76,23.76,0,0,1-7.64,1.19,20.43,20.43,0,0,1-7-1.14,14.61,14.61,0,0,1-5.22-3.17,14.86,14.86,0,0,1-3.21-4.43,18.91,18.91,0,0,1-1.63-8,18.25,18.25,0,0,1,2.07-8.83,14,14,0,0,1,6.09-5.89,18.62,18.62,0,0,1,8.63-2.07,27.22,27.22,0,0,1,3.78.3A24.79,24.79,0,0,1,397.38,732.81Z"/><path class="c" d="M439,749a19.42,19.42,0,0,1-1,6.06,15.43,15.43,0,0,1-3.06,5.44,16.28,16.28,0,0,1-5.35,3.93,17.88,17.88,0,0,1-7.76,1.58,16.77,16.77,0,0,1-12.41-4.84,17,17,0,0,1-4.82-12.51q0-7.8,4.82-12.69a16.73,16.73,0,0,1,12.44-4.89A16.5,16.5,0,0,1,434.23,736Q439,740.87,439,749Zm-25.35-.53c0,3.61.79,6.35,2.35,8.21a7.23,7.23,0,0,0,5.74,2.78,7.14,7.14,0,0,0,6.14-3,12.93,12.93,0,0,0,2.19-7.74A14.54,14.54,0,0,0,428,741a6.7,6.7,0,0,0-6.08-3.45,7,7,0,0,0-3.19.71,7.31,7.31,0,0,0-2.48,2,11.11,11.11,0,0,0-1.69,3A15.21,15.21,0,0,0,413.66,748.48Z"/><path class="c" d="M456.49,732.06l.22,5.05q3.54-5.58,10.68-5.58a14.08,14.08,0,0,1,4.84.78,9.57,9.57,0,0,1,3.52,2.15,9.36,9.36,0,0,1,2.07,3,16.47,16.47,0,0,1,1,4.61q.14,1.41.16,7.45v15.6h-8.55V748.54q0-5.38-.94-7.27a5,5,0,0,0-4.79-2.82,7.19,7.19,0,0,0-3.95,1.19,6.87,6.87,0,0,0-2.7,3.39,18.82,18.82,0,0,0-.84,6.42v15.66h-8.62V738.58q0-3.42-.28-6.52Z"/><path class="c" d="M493.05,738.61h-6.3v-6.39h6.39v-6.77l8.24-2.72v9.49h7.71v6.39h-7.71V750.7c0,2.91.25,4.76.75,5.58a4.63,4.63,0,0,0,4.26,2.07,10.16,10.16,0,0,0,3.07-.5l.22,6.82a18.83,18.83,0,0,1-5.83.82,14,14,0,0,1-4.15-.55,9.23,9.23,0,0,1-3-1.53,8.43,8.43,0,0,1-2-2.23,11.71,11.71,0,0,1-1.25-3.59,25.83,25.83,0,0,1-.37-5.1Z"/><path class="c" d="M546.65,751.24H524.28a8.45,8.45,0,0,0,4.63,7.11,11.35,11.35,0,0,0,4.92,1,18.78,18.78,0,0,0,5.2-.74,25.68,25.68,0,0,0,5.45-2.36l.1,7a14.61,14.61,0,0,1-4.5,1.72,27.5,27.5,0,0,1-6.91.88,20.27,20.27,0,0,1-9.16-2,13.31,13.31,0,0,1-6-6,20.49,20.49,0,0,1-2.06-9.4,20.93,20.93,0,0,1,2-9.31,13.59,13.59,0,0,1,5.78-6.09,17.29,17.29,0,0,1,8.37-2.05,14.2,14.2,0,0,1,8.36,2.43,12.7,12.7,0,0,1,4.88,6.59,29.63,29.63,0,0,1,1.39,9.43C546.74,749.88,546.71,750.46,546.65,751.24Zm-22.44-6h14.48q-.2-4.1-2.1-6.14a6.67,6.67,0,0,0-5.08-2,6,6,0,0,0-4.6,1.78A10.17,10.17,0,0,0,524.21,745.28Z"/><path class="c" d="M564.12,732.06l.22,5.05q3.54-5.58,10.69-5.58a14.12,14.12,0,0,1,4.84.78,9.57,9.57,0,0,1,3.52,2.15,9.36,9.36,0,0,1,2.07,3,16.84,16.84,0,0,1,1,4.61q.13,1.41.16,7.45v15.6h-8.55V748.54c0-3.59-.32-6-.94-7.27a5,5,0,0,0-4.8-2.82,7.16,7.16,0,0,0-3.94,1.19,6.81,6.81,0,0,0-2.7,3.39,18.78,18.78,0,0,0-.85,6.42v15.66h-8.61V738.58q0-3.42-.28-6.52Z"/><path class="c" d="M606.73,726.05h-8.62V718h8.62Zm-8.62,39.06V732.06h8.62v33.05Z"/><path class="c" d="M640.4,736.82V717h8.46v48.12h-8.14v-4.82a11.7,11.7,0,0,1-4.39,3.85,12.86,12.86,0,0,1-6,1.41,13.05,13.05,0,0,1-4.87-.86,12,12,0,0,1-3.51-2.05,13.43,13.43,0,0,1-2.54-3.06,16.86,16.86,0,0,1-1.93-4.88,27,27,0,0,1-.75-6.5q0-7.74,3.56-12.24a11.74,11.74,0,0,1,9.72-4.49,12.45,12.45,0,0,1,5.83,1.28A14.31,14.31,0,0,1,640.4,736.82Zm-7.7,1.7a6.34,6.34,0,0,0-5.05,2.49q-2.05,2.49-2.06,7.62c0,3.56.73,6.16,2.21,7.82a6.54,6.54,0,0,0,10.32-.06c1.46-1.7,2.19-4.24,2.19-7.6a12.75,12.75,0,0,0-2-7.38A6.44,6.44,0,0,0,632.7,738.52Z"/><path class="c" d="M692.53,749a19.42,19.42,0,0,1-1,6.06,15.56,15.56,0,0,1-3,5.44,16.32,16.32,0,0,1-5.36,3.93,17.84,17.84,0,0,1-7.75,1.58A16.76,16.76,0,0,1,663,761.18a17,17,0,0,1-4.82-12.51q0-7.8,4.82-12.69a16.72,16.72,0,0,1,12.44-4.89A16.53,16.53,0,0,1,687.76,736Q692.53,740.87,692.53,749Zm-25.34-.53q0,5.41,2.35,8.21a7.52,7.52,0,0,0,11.87-.25,12.93,12.93,0,0,0,2.19-7.74,14.62,14.62,0,0,0-2.09-7.71,6.71,6.71,0,0,0-6.08-3.45,7.07,7.07,0,0,0-3.2.71,7.27,7.27,0,0,0-2.47,2,10.85,10.85,0,0,0-1.69,3A15,15,0,0,0,667.19,748.48Z"/><path class="d" d="M406.7,1116.06H712.6a0,0,0,0,1,0,0v11.38a9.27,9.27,0,0,1-9.27,9.27H416a9.27,9.27,0,0,1-9.27-9.27v-11.38A0,0,0,0,1,406.7,1116.06Z"/><path class="e" d="M673.38,1060.57c-1.74-2.42-5.75-4-10.19-4H456.08c-4.44,0-8.45,1.58-10.19,4l-38.31,53.23c-3.13,4.35,2.23,9.18,10.19,9.18H701.5c8,0,13.32-4.83,10.19-9.18Z"/><path class="d" d="M579.44,827.87H539.83l-74.92,251.46s25.84,33.74,94.73,33.74,94.72-33.74,94.72-33.74h0Z"/><ellipse class="f" cx="559.64" cy="827.87" rx="19.81" ry="2.39"/><path class="g" d="M619,960.49l-10.51-35.28c-13.05,4-29.14,6.91-48.8,6.91s-35.76-2.86-48.81-6.91l-10.51,35.28c14.54,5.94,34,10.65,59.32,10.65S604.41,966.43,619,960.49Z"/><path class="g" d="M529.59,862.25l-8.2,27.51a245.28,245.28,0,0,0,76.49,0l-8.2-27.51a250.27,250.27,0,0,1-60.09,0Z"/><path class="g" d="M631,1000.94l-.07,0c-16.71,7.68-40,14.15-71.3,14.15s-54.6-6.47-71.3-14.15l-.08,0-11.13,37.37a56.67,56.67,0,0,0,11.21,6.8c16.7,7.68,40,14.15,71.3,14.15s54.59-6.47,71.3-14.15a56.87,56.87,0,0,0,11.2-6.8Z"/><path class="h" d="M358.72,924.89c1-1.13,2.42-.77,3.68-.76q39.36.25,78.73.58a26.06,26.06,0,0,1,2.9.35c-.54,19-.65,38.09-1.09,57.13-.71,31.1-2.12,62.19-2.05,93.31,0,1.3.11,2.59.16,3.89,2.34-14,4.24-27.91,6-41.86,1.9-15.28,3.55-30.58,5.48-45.85,2.27-18,4.72-36,7.1-53.93,7.34,2.47,14.71,4.91,21.61,8.52-.72,9.94-4.18,19.29-6.21,29-2.53,12-5.44,23.92-8.25,36.15,1.82-.68,2-2.11,2.54-3.18,6.54-12.38,12.93-24.83,19.59-37.14,1.49-2.75,2.17-6.16,5.28-7.87,12,8.59,20.84,20,28.74,32.26,17.52,27.12,24.05,57.11,22.59,89-.23,4.85.27,8.29,5.68,10.58,6.92,2.93,10.47,9.32,11.25,16.69a121.92,121.92,0,0,1,.21,17.1c-.14,3.83-3.46,5.35-6.4,6.72-7,3.25-14.54,4.89-22.08,6.23-33,5.88-66.37,7.32-99.79,8.39-26.13.84-52.22.39-78.29-1-32.73-1.71-65.45-3.7-97.5-11.32-5.7-1.36-11.34-3-16.49-6-1.93-1.11-3.84-2.52-3.91-4.71-.2-6.82-1-13.69.77-20.44a21.74,21.74,0,0,1,13.23-15.36c3.11-1.28,3.68-2.92,3.64-5.83-.23-15.19.44-30.28,3.92-45.19a142.83,142.83,0,0,1,31-61.35c5.5-6.43,11.11-12.77,18.4-17.31,2,.63,2.46,2.48,3.25,4.05,6.81,13.49,13.57,27,20.43,40.47.55,1.1.65,2.81,2.66,3.14-2.1-9.91-4.22-19.52-6.18-29.16-2.38-11.74-5.9-23.25-7-35.23A141.52,141.52,0,0,1,344,936.88q8,71.46,16,143.09c1-1.46.59-2.94.56-4.31-.31-14.64.36-29.28-.38-44-1-19.83.37-39.73-.57-59.62-.67-14,0-28.05.07-42.08C359.67,928.26,360.21,926.37,358.72,924.89Zm-73,174.28c2.35,6.48,7.59,7.94,12.17,9.4,25.13,8,51.22,10.46,77.33,11.38,30.9,1.09,61.84,1.44,92.64-2.85,12.58-1.75,25.1-3.41,37.1-7.75,3.05-1.11,6.12-2.31,8.51-4.67.8-.79,1.89-1.63,1.37-2.89-.72-1.74-2-.41-2.9-.18-25.66,6.54-51.92,8.4-78.2,9-16.06.36-32.15.9-48.28.12-12.51-.61-25.05-1.11-37.58-1.66-8.08-.36-16.12-1.66-24.17-2.64A279.7,279.7,0,0,1,285.76,1099.17Z"/><path class="i" d="M459.6,937.75c-2.38,18-4.83,35.94-7.1,53.93-1.93,15.27-3.58,30.57-5.48,45.85-1.73,14-3.63,27.88-6,41.86-.05-1.3-.16-2.59-.16-3.89-.07-31.12,1.34-62.21,2.05-93.31.44-19,.55-38.09,1.09-57.13C450,928.39,454.47,933.44,459.6,937.75Z"/><path class="i" d="M358.72,924.89c1.49,1.48.95,3.37.94,5.11,0,14-.74,28.09-.07,42.08.94,19.89-.42,39.79.57,59.62.74,14.68.07,29.32.38,44,0,1.37.43,2.85-.56,4.31q-8-71.73-16-143.09C348.8,932.77,353.42,928.42,358.72,924.89Z"/><path class="j" d="M494.16,963.18c-3.11,1.71-3.79,5.12-5.28,7.87-6.66,12.31-13.05,24.76-19.59,37.14-.56,1.07-.72,2.5-2.54,3.18,2.81-12.23,5.72-24.15,8.25-36.15,2-9.66,5.49-19,6.21-29C486.58,951.1,490.33,957.17,494.16,963.18Z"/><path class="j" d="M322.25,945c1.13,12,4.65,23.49,7,35.23,2,9.64,4.08,19.25,6.18,29.16-2-.33-2.11-2-2.66-3.14-6.86-13.47-13.62-27-20.43-40.47-.79-1.57-1.27-3.42-3.25-4.05C312.94,955.75,316.82,949.79,322.25,945Z"/><path class="k" d="M285.76,1099.17a279.7,279.7,0,0,0,38,7.25c8.05,1,16.09,2.28,24.17,2.64,12.53.55,25.07,1,37.58,1.66,16.13.78,32.22.24,48.28-.12,26.28-.59,52.54-2.45,78.2-9,.92-.23,2.18-1.56,2.9.18.52,1.26-.57,2.1-1.37,2.89-2.39,2.36-5.46,3.56-8.51,4.67-12,4.34-24.52,6-37.1,7.75-30.8,4.29-61.74,3.94-92.64,2.85-26.11-.92-52.2-3.42-77.33-11.38C293.35,1107.11,288.11,1105.65,285.76,1099.17Z"/><circle class="l" cx="401.44" cy="1068.47" r="31.39"/><path class="m" d="M397.38,1071.72a4.38,4.38,0,0,0-1.16,2.78q-.77,4.68-1.59,9.34a3.25,3.25,0,0,1-.49,1,.87.87,0,0,1-.81.39l-9.94.07-.5,0c.18-1.1.36-2.15.53-3.2.52-3.13,1-6.26,1.57-9.38.26-1.52.54-3,.86-4.55a4.61,4.61,0,0,1,1.91-2.86c1.47-1,3-2,4.43-3l.72-.49a.56.56,0,0,0-.06-.17c-1.1-1.62-2.16-3.28-3.32-4.86a5.62,5.62,0,0,1-1-4.71c.17-.84.34-1.68.57-2.5a1.91,1.91,0,0,1,2-1.63c1.46-.08,2.92-.11,4.38-.12,3.22,0,6.43-.07,9.65,0a15.4,15.4,0,0,1,7.67,1.74,10.23,10.23,0,0,1,5.15,10.27,12.85,12.85,0,0,1-2.83,6.89,11,11,0,0,1-4.12,2.95l-1.2.54,7.26,15.08h-.54l-9.08,0c-.82,0-1.64,0-2.46,0a1.75,1.75,0,0,1-2.05-1.42c-.9-2.39-1.8-4.79-2.71-7.18-.36-1-.79-1.88-1.11-2.84A3.39,3.39,0,0,0,397.38,1071.72Zm.74-7.57c.55,0,1-.07,1.48-.13,1.36-.17,2.74-.3,4.08-.56a2.66,2.66,0,0,0,2.18-3,2.44,2.44,0,0,0-2.26-2.7,37.72,37.72,0,0,0-4-.14c-.31,0-.42.13-.47.42-.17,1.07-.37,2.14-.55,3.21S398.29,1063.14,398.12,1064.15Z"/><path class="n" d="M719.84,202.38c-2,1.59-3.76,3.48-5.65,5.22-2.34,2.16-4.53,4.48-7,6.54-2.13,1.81-4,3.91-6,5.78-.5.45-.76.46-1.23,0a16.23,16.23,0,0,0-7.61-3.93,17,17,0,0,0-3.34-.35V191a39.66,39.66,0,0,1,15.63,2.25,41,41,0,0,1,12.9,6.89c.77.62,1.53,1.26,2.29,1.89Z"/><path class="n" d="M593.83,275.27c-7.07,0-14.14,0-21.21,0-.88,0-1.23-.46-1.07-1.38.92-5.35,1.87-10.7,2.8-16q2-11.34,4-22.69,1.9-10.87,3.8-21.75,1.89-10.72,3.76-21.46c.24-1.35.21-1.36,1.56-1.36l6.38.05Z"/><path class="n" d="M551.68,225.42q-3,17.25-6.08,34.51c-.69,3.95-1.33,7.91-2,11.87-.44,2.7-1.6,3.7-4.36,3.69-1.2,0-2.39,0-3.58-.05V190.61h15.51v16q0,8.85,0,17.7C551.19,224.76,551,225.32,551.68,225.42Z"/><path class="n" d="M535.68,190.61v84.83l-11.24-.07q0-24.27,0-48.54v-.77c0-.38-.15-.62-.55-.66.55-3.2,1.08-6.4,1.63-9.59.22-1.25.24-1.24-1-1.25-.88,0-1.75,0-2.62,0V190.61Z"/><path class="n" d="M674.09,275.85A41.79,41.79,0,0,1,663,273.08c-.83-.32-1.63-.73-2.45-1.09a9.65,9.65,0,0,0,.2-2.68V229.43a11.08,11.08,0,0,0-.2-2.87c.59-.38,1.15-.8,1.76-1.14s.64-.49.19-1c-.63-.68-1.17-1.43-1.75-2.15a6.48,6.48,0,0,0,.18-1q0-10.74,0-21.47a39.06,39.06,0,0,1,12.12-6.1c.42-.14.86-.24,1.29-.36q0,13.74,0,27.46a3.75,3.75,0,0,0,.32,1.69c-4.14,5-5.18,10.87-4.74,17.11a12.38,12.38,0,0,0,3.62,7.9c.29.29.7.48.83.91-.36.31-.21.73-.21,1.09Q674.09,262.67,674.09,275.85Z"/><path class="n" d="M593.83,275.27V190.58c4.08-.08,8.15-.09,12.22,0q0,16.1,0,32.21c0,.36-.27.87.34,1.06a27.11,27.11,0,0,1-.63,2.84c-.25.75,0,.94.67.95v15c-.91,0-1.81.07-2.71,0a.66.66,0,0,0-.78.62c-.7,3.5-1.42,7-2.17,10.61h2.36v21.39Z"/><path class="n" d="M280.17,277a38.64,38.64,0,0,1-9.89-1.72V190.78q7.46,0,14.92-.05c.52,0,.54.19.46.64-1.41,8.4-2.77,16.82-4.23,25.21-1.31,7.51-2.79,15-4.08,22.5a19.29,19.29,0,0,0,.12,7.3,9.42,9.42,0,0,0,3.12,5.31c-.69.16-.41.72-.41,1.11Q280.15,264.92,280.17,277Z"/><path class="n" d="M221.62,275l-9.69,0q0-24.6,0-49.22c0-.42.2-.91-.25-1.26,2.69-2.53,2.62-7.36.58-9.61a2.05,2.05,0,0,0,.46-1.7V190.61a43.53,43.53,0,0,1,8.95,1c0,.38,0,.77,0,1.16Z"/><path class="n" d="M186.75,274.34c-.12.46-.48.56-.88.57-3.14.07-6.27.25-9.41.12q0-11.62,0-23.26,0-11.47,0-23c0-.42.18-.93-.4-1.17,2.5-1.83,5.16-3.41,7.74-5.1.64-.42.68-.67.26-1.32-2.41-3.71-4.72-7.49-7.42-11a11.26,11.26,0,0,1-2-9.32c.36-1.93.75-3.85,1.25-5.74.89-3.32,2-4.25,5.48-4.52a38.23,38.23,0,0,1,5,0v82.24C186.34,273.36,186.23,273.94,186.75,274.34Z"/><path class="n" d="M477.52,190.65c3.1-.11,6.2-.15,9.3-.06v75.33c0,.29,0,.58,0,.87a.37.37,0,0,0,.36.38c-.28,1.58-.52,3.17-.85,4.74a5.24,5.24,0,0,1-1.38,2.4,1.5,1.5,0,0,1-1.06.6l-6.38.13Z"/><path class="n" d="M270.28,190.78v84.54a31.7,31.7,0,0,1-9.3-3.89V190.78Z"/><path class="n" d="M423.59,190.88c1.23-.69,2.56-.41,3.86-.39l5.29.11v84.13c-.64.45-1.38.19-2.06.23-2.35.12-4.7.18-7.05.07q0-41.29,0-82.61C423.62,191.91,423.6,191.39,423.59,190.88Z"/><path class="n" d="M423.59,190.88c0,.51,0,1,0,1.54q0,41.31,0,82.61c-5.23.19-10.46,0-15.69.06-.77,0-.64-.43-.56-.88.53-3.23,1.05-6.47,1.62-9.7q2.85-16.35,5.74-32.69,2.65-15.06,5.33-30.12c.42-2.37.78-4.76,1.24-7.13C421.6,193.08,422,191.6,423.59,190.88Z"/><path class="n" d="M186.75,274.34c-.52-.4-.41-1-.41-1.51V190.59c3.88-.1,7.75-.23,11.63-.05q0,12.35,0,24.69c0,.36-.26.87.34,1.07a1.28,1.28,0,0,1,0,.19c-.61,3.37-1.2,6.75-1.84,10.11-.11.61,0,.83.63.73.48-.07,1-.08,1.44-.12,0,2.41,0,4.82,0,7.22V247c0,.48.09,1-.62,1.08-.5-1.5-1.74-2.34-2.9-3.25-.45-.35-.58-.17-.89.16-1.57,1.7-1.81,3.86-2.18,6-.53,3.08-1.14,6.14-1.67,9.22-.47,2.71-.94,5.43-1.38,8.15-.21,1.32-.51,2.63-.8,3.94A3.49,3.49,0,0,1,186.75,274.34Z"/><path class="n" d="M221.62,275V192.78c0-.39,0-.78,0-1.16a25.5,25.5,0,0,1,9.37,3.93c-.46.29-.29.75-.29,1.15q0,19.37,0,38.74a2.24,2.24,0,0,0,.22,1.22,26.91,26.91,0,0,1-7.15,3.87c-1.49.6-1.26.38-.7,1.66.85,2,1.77,3.91,2.73,5.82,4.29,8.52,8.21,17.21,12.37,25.79a2.91,2.91,0,0,1,.48,1.23Z"/><path class="n" d="M322.72,257.65a29.42,29.42,0,0,1-7.91,10.11,20,20,0,0,1-1.88,1.54,5.18,5.18,0,0,1-.2-1.62q0-38.44,0-76.9h9.69v65.29A2.43,2.43,0,0,0,322.72,257.65Z"/><path class="n" d="M477.52,190.65V275H468.6V220a2.48,2.48,0,0,0-.39-1.74c1.14-2.83,1.37-5.86,1.92-8.81,1-5.24,1.84-10.5,2.76-15.75a4.79,4.79,0,0,1,.65-1.69,2.46,2.46,0,0,1,2.54-1.39C476.55,190.65,477,190.64,477.52,190.65Z"/><path class="n" d="M432.74,274.73V190.6h9.5v52.06c-1.84,0-2.39,1.18-2.65,2.78-.75,4.53-1.52,9.06-2.43,13.56-.72,3.55-1.19,7.14-2,10.67a20.85,20.85,0,0,0-.38,2.12A4.52,4.52,0,0,1,432.74,274.73Z"/><path class="n" d="M312.74,190.78q0,38.46,0,76.9a5.18,5.18,0,0,0,.2,1.62,4.77,4.77,0,0,1-.6.59,31.56,31.56,0,0,1-8.07,4.28c-.37-.26-.24-.64-.24-1,0-1.77,0-3.54,0-5.31q0-21,0-42c0-.36.26-.87-.33-1.08q1.59-8.87,3.17-17.74c.84-4.69,1.67-9.37,2.57-14,.46-2.36.53-2.34,2.94-2.29C312.48,190.74,312.61,190.77,312.74,190.78Z"/><path class="n" d="M261,190.78v80.65a22.39,22.39,0,0,1-11.24-15.3c-.86-4-.42-8,.26-12.07,1.43-8.44,2.78-16.88,4.2-25.32q2.19-13.06,4.48-26.14C259,190.64,259.1,190.65,261,190.78Z"/><path class="n" d="M487.19,267.17a.37.37,0,0,1-.36-.38c0-.29,0-.58,0-.87V190.59c4.39,0,8.78,0,13.17-.06.56,0,.64.2.56.68-1.69,10.12-3.24,20.26-5.08,30.35-1.62,8.86-3.18,17.73-4.78,26.59-.54,3-1.07,6-1.69,9-.68,3.28-1.18,6.59-1.75,9.89A1.27,1.27,0,0,1,487.19,267.17Z"/><path class="n" d="M322.72,257.65a2.43,2.43,0,0,1-.29-1.58V190.78q6.58,0,13.17-.05c.47,0,.61.1.52.6Q334,204.19,331.84,217c-1.19,7.11-2.34,14.22-3.62,21.31a100.83,100.83,0,0,1-2.34,11.31A34.45,34.45,0,0,1,322.72,257.65Z"/><path class="n" d="M197.93,248c.71-.06.62-.6.62-1.08V234.43c0-2.4,0-4.81,0-7.22,1.66-.16,3.34-.26,5-.47,2.79-.37,5.67-.43,8.11-2.15.45.35.25.84.25,1.26q0,24.61,0,49.22c-2.75.29-4.08-.46-5-2.92q-4.28-11.94-9-23.73A2.34,2.34,0,0,1,197.93,248Z"/><path class="n" d="M176.05,227.63c.58.24.4.75.4,1.17q0,11.49,0,23,0,11.64,0,23.26c-4.71,0-9.42,0-14.13.06-.76,0-.65-.41-.57-.87l2-11.21c1.21-7,2.4-14,3.64-21,.34-2,.74-3.92,1.22-5.85a10.64,10.64,0,0,1,3.8-5.9A35.26,35.26,0,0,1,176.05,227.63Z"/><path class="n" d="M689,275.22l-.4,0q0-11.53,0-23.07a4.25,4.25,0,0,0-.2-1.42A33.25,33.25,0,0,0,699,245.46c.5-.36.75-.37,1.12.18q6.07,9.17,12.18,18.3c.17.25.57.51,0,.82-4.06,2.35-7.89,5.1-12.22,7a59,59,0,0,1-10,3.3,4.9,4.9,0,0,1-.77.08Z"/><path class="n" d="M369.73,254.23c.48-.26,1-.49,1.44-.78,2.95-1.85,3-5.26.19-7.3-.54-.39-1.1-.75-1.66-1.13,0-.45,0-.9,0-1.35,0-7.86,0-15.72,0-23.58a2.18,2.18,0,0,1,.44-1.53,5.82,5.82,0,0,0,4,3.4c1.6.54,3.15,1.24,4.73,1.88-.32.23-.22.58-.22.89q0,24.92,0,49.82a39.23,39.23,0,0,1-8.93,1.68Z"/><path class="n" d="M370.16,218.56a2.18,2.18,0,0,0-.44,1.53c0,7.86,0,15.72,0,23.58,0,.45,0,.9,0,1.35a93.57,93.57,0,0,0-8.9-3.53q0-23.37,0-46.74c0-.34.1-.73-.3-.94a41,41,0,0,1,9.2-2.76c0,.45,0,.9,0,1.35q0,11.61,0,23.22c0,.37-.26.87.34,1.07Z"/><path class="n" d="M468.21,218.24a2.48,2.48,0,0,1,.39,1.74V275c-3.06,0-6.13,0-9.19,0-.56,0-.63-.17-.54-.67q1-6,2.06-12c1.08-6.37,2.13-12.75,3.25-19.11.11-.62-.06-.61-.53-.62a38.31,38.31,0,0,1-4.15-.06V220.18c1.82-.06,3.65-.23,5.46-.14A3.21,3.21,0,0,0,468.21,218.24Z"/><path class="n" d="M378.66,274.55q0-24.92,0-49.82c0-.31-.1-.66.22-.89,3.05,1.18,6.25,2,9.12,3.67-.39.33-.22.78-.22,1.18q0,14,0,28,0,6.38,0,12.75c0,.36-.24.88.4,1a14.05,14.05,0,0,1-4,2.17A33.14,33.14,0,0,1,378.66,274.55Z"/><path class="n" d="M388.17,270.47c-.64-.14-.4-.66-.4-1q0-6.37,0-12.75,0-14,0-28c0-.4-.17-.85.22-1.18,8.5,4.05,13.35,10.77,13.4,19.63,0,5.88-1.28,11.29-4.83,16.06a27.94,27.94,0,0,1-7.86,7.07A2.41,2.41,0,0,1,388.17,270.47Z"/><path class="n" d="M660.52,226.56a11.08,11.08,0,0,1,.2,2.87v39.88a9.65,9.65,0,0,1-.2,2.68,30.32,30.32,0,0,1-10.28-7.32,5.43,5.43,0,0,0,.21-1.33q0-14.89,0-29.81c0-.34.13-.72-.22-1Z"/><path class="n" d="M360.51,193.81c.4.21.3.6.3.94q0,23.37,0,46.74a28,28,0,0,1-9.28-4.7,2,2,0,0,0,.18-1.13V200.79a2,2,0,0,0-.19-1.12A27,27,0,0,1,360.51,193.81Z"/><path class="n" d="M674.6,222.48a3.75,3.75,0,0,1-.32-1.69q0-13.72,0-27.46a62.89,62.89,0,0,1,8.78-2A22,22,0,0,1,689,191v24.71A20.57,20.57,0,0,0,677.21,220,10.28,10.28,0,0,0,674.6,222.48Z"/><path class="n" d="M442.23,242.65V190.59c2,0,4.06,0,6.09-.05.39,0,.6.09.52.55-.53,2.88-1.15,5.74-1.54,8.63s-.95,6-1.38,9c-.35,2.49-.9,5-1.28,7.45-.19,1.2-.34,2.4-.64,3.58-.13.54.4.38.67.38,1.84,0,3.68,0,5.51,0,1,0,1.94,0,2.9.07v22.42a25.88,25.88,0,0,1-4.13.08C446.73,242.71,444.48,242.82,442.23,242.65Z"/><path class="n" d="M521.91,190.61v23.92H504.52c.51-3,1-5.94,1.52-8.9.82-4.81,1.67-9.62,2.47-14.43.08-.5.25-.63.73-.63C513.46,190.6,517.69,190.6,521.91,190.61Z"/><path class="n" d="M688.44,250.78a4.25,4.25,0,0,1,.2,1.42q0,11.54,0,23.07a37.19,37.19,0,0,1-7.72.92,32.44,32.44,0,0,1-6.82-.34q0-13.19,0-26.36c0-.36-.15-.78.21-1.09a15.4,15.4,0,0,0,13.76,2.44C688.19,250.81,688.32,250.8,688.44,250.78Z"/><path class="n" d="M606.4,223.85c-.61-.19-.34-.7-.34-1.06q0-16.11,0-32.21c4.33-.08,8.66-.09,13,0v24.34c-1.9.07-3.79.12-5.68.21-3.26.15-4.94,1.42-5.9,4.53C607,221,606.75,222.45,606.4,223.85Z"/><path class="n" d="M551.68,225.42c-.71-.1-.49-.66-.49-1.06q0-8.85,0-17.7v-16h13.18v23.85c-3.29.18-6.57,0-9.86-.07-.82,0-1.12.37-1.16,1-.12,1.61-.55,3.17-.77,4.76C552.32,221.89,552,223.65,551.68,225.42Z"/><path class="n" d="M231,236.66a2.24,2.24,0,0,1-.22-1.22q0-19.37,0-38.74c0-.4-.17-.86.29-1.15,2.08,1.17,3.55,3,5.12,4.74a19.62,19.62,0,0,1,4.74,10.37,27.69,27.69,0,0,1-5,20.88A18.7,18.7,0,0,1,231,236.66Z"/><path class="n" d="M360,276.39a51.61,51.61,0,0,1-12.21-2.09q0-12,0-24c0-.42.2-.92-.31-1.22.66-1.32,1.32-.26,1.78.09a30.28,30.28,0,0,0,10.76,5.35Q360.05,265.47,360,276.39Z"/><path class="n" d="M564.37,214.46V190.61h14c-.68,4-1.33,8-2,11.91-.52,2.93-1.1,5.86-1.66,8.79a3.79,3.79,0,0,1-3.21,3C569.07,214.45,566.72,214.42,564.37,214.46Z"/><path class="n" d="M303.67,224.81c.59.21.33.72.33,1.08q0,21,0,42c0,1.77,0,3.54,0,5.31,0,.34-.13.72.24,1a34.06,34.06,0,0,1-8,2.23c0-.51,0-1,0-1.54q0-12.08,0-24.16c2.65-2.63,3.43-6.1,4.24-9.53,1.19-5,2-10.15,2.94-15.22C303.5,225.57,303.59,225.19,303.67,224.81Z"/><path class="n" d="M619,214.92V190.58c3.49-.08,7-.09,10.46,0v24.34C626,215.13,622.53,214.9,619,214.92Z"/><path class="n" d="M523.88,225.4c.4,0,.55.28.55.66v.77q0,24.27,0,48.54c-2.93,0-5.87.06-8.8.11-.57,0-.53-.28-.46-.67q1-5.69,2-11.38,1.78-10.24,3.56-20.5,1.49-8.49,3-17A5,5,0,0,1,523.88,225.4Z"/><path class="n" d="M629.5,214.92V190.58c3.78,0,7.56,0,11.34-.07.88,0,.49.6.44.94-.29,1.9-.62,3.8-.93,5.7-.82,5-1.57,10-2.57,15a3.41,3.41,0,0,1-3.43,2.76C632.73,215,631.12,214.92,629.5,214.92Z"/><path class="n" d="M351.51,199.67a2,2,0,0,1,.19,1.12v34.87a2,2,0,0,1-.18,1.13c-5.23-3.92-8.39-9.06-8.93-15.59C341.87,212.54,345.47,205.58,351.51,199.67Z"/><path class="n" d="M347.51,249.13c.51.3.31.8.31,1.22q0,12,0,24A40.5,40.5,0,0,1,331,265.39c-.31-.28-.67-.49-.14-1Q339.21,256.8,347.51,249.13Z"/><path class="n" d="M280.17,277q0-12.12,0-24.24c0-.39-.28-1,.41-1.11,2,1.51,4.3,1.8,6.66,2,.74.05,1.48,0,2.22,0v23.52c-2.93.24-5.86.06-8.78.05A.72.72,0,0,1,280.17,277Z"/><path class="n" d="M621.75,253.88c4.07,0,8.14-.1,12.21,0l0,.22c-.52,3.71-1.36,7.37-2.07,11.05-.52,2.71-1.1,5.4-1.66,8.1a2.49,2.49,0,0,1-2.34,2.05c-2.06,0-4.13,0-6.19,0Z"/><path class="n" d="M198.32,216.3c-.6-.2-.33-.71-.34-1.07q0-12.34,0-24.69c3.23-.09,6.47-.18,9.7.05V213a60.65,60.65,0,0,0-8.2,0c-.3,0-.73-.18-.71.47A13.11,13.11,0,0,1,198.32,216.3Z"/><path class="n" d="M606.44,242.61v-15l11.84-.06c.9,0,1.8,0,2.7,0q0,7.5,0,15C616.13,242.7,611.28,242.69,606.44,242.61Z"/><path class="n" d="M394.61,213.43c-.91,1-1.83,2-2.71,3-.29.33-.48.31-.78,0a29.29,29.29,0,0,0-6.1-3.84c.37-.3.21-.72.21-1.08q0-10.5,0-21a39.71,39.71,0,0,1,9.13,2l0,20.06C394.35,212.94,394.3,213.25,394.61,213.43Z"/><path class="n" d="M360,276.39q0-10.92,0-21.82a20.22,20.22,0,0,0,8.09,0c.54-.1,1.06-.25,1.59-.37v22A41.87,41.87,0,0,1,360,276.39Z"/><path class="n" d="M650.22,232.54c.35.27.22.65.22,1q0,14.91,0,29.81a5.43,5.43,0,0,1-.21,1.33,29.77,29.77,0,0,1-6.94-12,44.9,44.9,0,0,1-2-13.77,2.48,2.48,0,0,1,1.32-2.21C645.13,235.26,647.63,233.82,650.22,232.54Z"/><path class="n" d="M603.14,275.27V253.88h9.5V275.3Z"/><path class="n" d="M612.64,275.3V253.88h9.11V275.3C618.71,275.39,615.68,275.38,612.64,275.3Z"/><path class="n" d="M621,242.61q0-7.49,0-15c4.46-.1,8.92-.08,13.38,0l.17.1a34.12,34.12,0,0,1-.83,5.59c-.47,2.81-1.15,5.58-1.7,8.38-.14.75-.43,1-1.26,1C627.49,242.61,624.23,242.63,621,242.61Z"/><path class="n" d="M370.08,216.69c-.6-.2-.33-.7-.34-1.07q0-11.61,0-23.22c0-.45,0-.9,0-1.35a38.63,38.63,0,0,1,8.16-.89l0,21.35a22.72,22.72,0,0,0-4.93,1.25A4.7,4.7,0,0,0,370.08,216.69Z"/><path class="n" d="M289.48,277.18V253.66a12.92,12.92,0,0,0,6.78-3q0,12.07,0,24.16c0,.51,0,1,0,1.54A40.94,40.94,0,0,1,289.48,277.18Z"/><path class="n" d="M377.89,211.51l0-21.35a32.57,32.57,0,0,1,7.38.39q0,10.5,0,21c0,.36.16.78-.21,1.08A17.88,17.88,0,0,0,377.89,211.51Z"/><path class="n" d="M394.61,213.43c-.31-.18-.26-.49-.26-.77l0-20.06a40.45,40.45,0,0,1,12.76,6.59c.34.27.36.43.06.74-2.35,2.41-4.54,5-6.95,7.35-1.71,1.68-3.22,3.55-4.83,5.33C395.17,212.9,394.88,213.16,394.61,213.43Z"/><path class="n" d="M453.1,242.63V220.21l6.4,0v22.47A56.93,56.93,0,0,1,453.1,242.63Z"/><path class="n" d="M660.88,199.79q0,10.74,0,21.47a6.48,6.48,0,0,1-.18,1l-10.23-11.69c-.22-.25-.34-.43-.08-.73A58.84,58.84,0,0,1,660.88,199.79Z"/><path class="n" d="M207.67,213v-22.4c1.68-.1,3.36,0,5,0v22.67a2.05,2.05,0,0,1-.46,1.7A8.85,8.85,0,0,0,207.67,213Z"/><path class="n" d="M634.53,227.72l-.17-.1C634.46,227.57,634.55,227.55,634.53,227.72Z"/><path class="n" d="M634,254.13l0-.22C634.15,253.94,634.08,254,634,254.13Z"/><path class="n" d="M689,275.22l.23-.1Z"/><path class="a" d="M207.67,213a8.85,8.85,0,0,1,4.58,2c2,2.25,2.11,7.08-.58,9.61-2.44,1.72-5.32,1.78-8.11,2.15-1.66.21-3.34.31-5,.47-.48,0-1,0-1.44.12-.64.1-.74-.12-.63-.73.64-3.36,1.23-6.74,1.84-10.11a1.28,1.28,0,0,0,0-.19,13.11,13.11,0,0,0,.44-2.84c0-.65.41-.45.71-.47A60.65,60.65,0,0,1,207.67,213Z"/><rect class="o" x="145.84" y="338.02" width="582.56" height="102.02"/><polygon class="p" points="145.84 433.03 266.29 338.02 209.69 338.02 145.84 388.38 145.84 433.03"/><polygon class="p" points="339.74 338.02 210.41 440.03 267.01 440.03 396.34 338.02 339.74 338.02"/><polygon class="p" points="469.79 338.02 340.46 440.03 397.06 440.03 526.38 338.02 469.79 338.02"/><polygon class="p" points="599.84 338.02 470.51 440.03 527.11 440.03 656.43 338.02 599.84 338.02"/><polygon class="p" points="728.41 339.18 600.56 440.03 657.16 440.03 728.41 383.83 728.41 339.18"/></svg>