<?xml version="1.0" encoding="UTF-8" standalone="no"?>
<svg
   viewBox="0 0 1200 1200"
   version="1.1"
   id="svg107"
   sodipodi:docname="Figuras_Rush_Web_Mesa de trabajo 2.svg"
   inkscape:version="1.3 (0e150ed6c4, 2023-07-21)"
   xmlns:inkscape="http://www.inkscape.org/namespaces/inkscape"
   xmlns:sodipodi="http://sodipodi.sourceforge.net/DTD/sodipodi-0.dtd"
   xmlns="http://www.w3.org/2000/svg"
   xmlns:svg="http://www.w3.org/2000/svg"
   xmlns:rdf="http://www.w3.org/1999/02/22-rdf-syntax-ns#"
   xmlns:cc="http://creativecommons.org/ns#"
   xmlns:dc="http://purl.org/dc/elements/1.1/">
  <sodipodi:namedview
     id="namedview107"
     pagecolor="#ffffff"
     bordercolor="#000000"
     borderopacity="0.25"
     inkscape:showpageshadow="2"
     inkscape:pageopacity="0.0"
     inkscape:pagecheckerboard="0"
     inkscape:deskcolor="#d1d1d1"
     inkscape:zoom="0.29857056"
     inkscape:cx="599.52328"
     inkscape:cy="607.89651"
     inkscape:window-width="1366"
     inkscape:window-height="697"
     inkscape:window-x="-8"
     inkscape:window-y="-8"
     inkscape:window-maximized="1"
     inkscape:current-layer="svg107" />
  <defs
     id="defs1">
    <style
       id="style1">.a{fill:#097993;}.b{fill:#0f9bb2;}.c{fill:#03566d;}.d,.e{fill:none;stroke:#03566d;stroke-miterlimit:10;}.d{stroke-width:0.76px;}.e{stroke-width:6.89px;}</style>
  </defs>
  <title
     id="title1">Figuras_Rush_Web</title>
  <path
     class="a"
     d="M514.42,93.64H600a85.58,85.58,0,0,1,85.58,85.58v0A85.58,85.58,0,0,1,600,264.79H514.42a0,0,0,0,1,0,0V93.64a0,0,0,0,1,0,0Z"
     transform="translate(420.79 779.21) rotate(-90)"
     id="path1"
     style="opacity:0.15728155" />
  <path
     class="b"
     d="M979.42,87.74h0a172.17,172.17,0,0,1,172.17,172.17v0a0,0,0,0,1,0,0H979.42a0,0,0,0,1,0,0V87.74A0,0,0,0,1,979.42,87.74Z"
     id="path2"
     style="opacity:0.15728155" />
  <rect
     class="b"
     x="48.41"
     y="89.01"
     width="169.63"
     height="169.63"
     id="rect2"
     style="opacity:0.15728155" />
  <circle
     class="c"
     cx="342.23"
     cy="173.83"
     r="69.5"
     id="circle2"
     style="opacity:0.15728155" />
  <path
     class="c"
     d="M887.32,121.16H767.43a79.79,79.79,0,0,1,119.89,0Z"
     id="path3"
     style="opacity:0.15728155" />
  <path
     class="c"
     d="M901.56,144.38H753.19a78.35,78.35,0,0,1,5.75-11.61H895.81A79.34,79.34,0,0,1,901.56,144.38Z"
     id="path4"
     style="opacity:0.15728155" />
  <path
     class="c"
     d="M906.92,167.61H747.82A78.07,78.07,0,0,1,749.58,156H905.16A78.07,78.07,0,0,1,906.92,167.61Z"
     id="path5"
     style="opacity:0.15728155" />
  <path
     class="c"
     d="M766.71,225.67H888a79.81,79.81,0,0,1-121.32,0Z"
     id="path6"
     style="opacity:0.15728155" />
  <path
     class="c"
     d="M901.88,202.44a79,79,0,0,1-5.58,11.61H758.45a78,78,0,0,1-5.58-11.61Z"
     id="path7"
     style="opacity:0.15728155" />
  <path
     class="c"
     d="M907,179.21a76.68,76.68,0,0,1-1.63,11.62H749.4a76.68,76.68,0,0,1-1.63-11.62Z"
     id="path8"
     style="opacity:0.15728155" />
  <line
     class="d"
     x1="887.32"
     y1="121.16"
     x2="767.43"
     y2="121.16"
     id="line8"
     style="opacity:0.15728155" />
  <line
     class="d"
     x1="895.81"
     y1="132.77"
     x2="758.94"
     y2="132.77"
     id="line9"
     style="opacity:0.15728155" />
  <line
     class="d"
     x1="901.56"
     y1="144.38"
     x2="753.19"
     y2="144.38"
     id="line10"
     style="opacity:0.15728155" />
  <line
     class="d"
     x1="905.16"
     y1="155.99"
     x2="749.58"
     y2="155.99"
     id="line11"
     style="opacity:0.15728155" />
  <line
     class="d"
     x1="906.92"
     y1="167.61"
     x2="747.82"
     y2="167.61"
     id="line12"
     style="opacity:0.15728155" />
  <line
     class="d"
     x1="906.97"
     y1="179.21"
     x2="747.77"
     y2="179.21"
     id="line13"
     style="opacity:0.15728155" />
  <line
     class="d"
     x1="905.34"
     y1="190.83"
     x2="749.4"
     y2="190.83"
     id="line14"
     style="opacity:0.15728155" />
  <line
     class="d"
     x1="901.88"
     y1="202.44"
     x2="752.87"
     y2="202.44"
     id="line15"
     style="opacity:0.15728155" />
  <line
     class="d"
     x1="896.3"
     y1="214.05"
     x2="758.45"
     y2="214.05"
     id="line16"
     style="opacity:0.15728155" />
  <line
     class="d"
     x1="888.03"
     y1="225.67"
     x2="766.71"
     y2="225.67"
     id="line17"
     style="opacity:0.15728155" />
  <line
     class="d"
     x1="875.76"
     y1="237.28"
     x2="778.99"
     y2="237.28"
     id="line18"
     style="opacity:0.15728155" />
  <path
     class="c"
     d="M960.52,379.59h85.58a85.58,85.58,0,0,1,85.58,85.58v0a85.58,85.58,0,0,1-85.58,85.58H960.52a0,0,0,0,1,0,0V379.59a0,0,0,0,1,0,0Z"
     transform="translate(580.93 1511.26) rotate(-90)"
     id="path18"
     style="opacity:0.15728155" />
  <rect
     class="c"
     x="68.33"
     y="393.27"
     width="92.01"
     height="10.34"
     id="rect18"
     style="opacity:0.15728155" />
  <rect
     class="c"
     x="68.33"
     y="406.62"
     width="92.01"
     height="10.34"
     id="rect19"
     style="opacity:0.15728155" />
  <rect
     class="c"
     x="68.33"
     y="419.96"
     width="92.01"
     height="10.34"
     id="rect20"
     style="opacity:0.15728155" />
  <rect
     class="c"
     x="68.33"
     y="433.3"
     width="92.01"
     height="10.34"
     id="rect21"
     style="opacity:0.15728155" />
  <rect
     class="c"
     x="68.33"
     y="446.65"
     width="92.01"
     height="10.34"
     id="rect22"
     style="opacity:0.15728155" />
  <rect
     class="c"
     x="68.33"
     y="459.99"
     width="92.01"
     height="10.34"
     id="rect23"
     style="opacity:0.15728155" />
  <rect
     class="c"
     x="68.33"
     y="473.34"
     width="92.01"
     height="10.34"
     id="rect24"
     style="opacity:0.15728155" />
  <rect
     class="c"
     x="68.33"
     y="486.68"
     width="92.01"
     height="10.34"
     id="rect25"
     style="opacity:0.15728155" />
  <rect
     class="c"
     x="68.33"
     y="500.03"
     width="92.01"
     height="10.34"
     id="rect26"
     style="opacity:0.15728155" />
  <rect
     class="c"
     x="68.33"
     y="513.37"
     width="92.01"
     height="10.34"
     id="rect27"
     style="opacity:0.15728155" />
  <rect
     class="c"
     x="68.33"
     y="526.71"
     width="92.01"
     height="10.34"
     id="rect28"
     style="opacity:0.15728155" />
  <rect
     class="c"
     x="68.33"
     y="540.06"
     width="92.01"
     height="10.34"
     id="rect29"
     style="opacity:0.15728155" />
  <rect
     class="c"
     x="68.33"
     y="553.4"
     width="92.01"
     height="10.34"
     id="rect30"
     style="opacity:0.15728155" />
  <polygon
     class="a"
     points="342.23 407.59 424.11 549.42 260.34 549.42 342.23 407.59"
     id="polygon30"
     style="opacity:0.15728155" />
  <rect
     class="a"
     x="546.85"
     y="423.61"
     width="109.79"
     height="109.79"
     transform="translate(514.6 -285.35) rotate(45)"
     id="rect31"
     style="opacity:0.15728155" />
  <line
     class="e"
     x1="779.38"
     y1="398.18"
     x2="779.38"
     y2="538.45"
     id="line31"
     style="opacity:0.15728155" />
  <line
     class="e"
     x1="819.95"
     y1="398.18"
     x2="819.95"
     y2="538.45"
     id="line32"
     style="opacity:0.15728155" />
  <line
     class="e"
     x1="860.52"
     y1="398.18"
     x2="860.52"
     y2="538.45"
     id="line33"
     style="opacity:0.15728155" />
  <circle
     class="c"
     cx="114.47"
     cy="779.62"
     r="66.84"
     id="circle33"
     style="opacity:0.15728155" />
  <path
     class="a"
     d="M981.22,694h85.58a85.58,85.58,0,0,1,85.58,85.58v0a85.58,85.58,0,0,1-85.58,85.58H981.22a0,0,0,0,1,0,0V694a0,0,0,0,1,0,0Z"
     transform="translate(2133.59 1559.24) rotate(180)"
     id="path33"
     style="opacity:0.15728155" />
  <rect
     class="c"
     x="789.21"
     y="694.38"
     width="92.01"
     height="10.34"
     id="rect33"
     style="opacity:0.15728155" />
  <rect
     class="c"
     x="789.21"
     y="707.73"
     width="92.01"
     height="10.34"
     id="rect34"
     style="opacity:0.15728155" />
  <rect
     class="c"
     x="789.21"
     y="721.07"
     width="92.01"
     height="10.34"
     id="rect35"
     style="opacity:0.15728155" />
  <rect
     class="c"
     x="789.21"
     y="734.41"
     width="92.01"
     height="10.34"
     id="rect36"
     style="opacity:0.15728155" />
  <rect
     class="c"
     x="789.21"
     y="747.76"
     width="92.01"
     height="10.34"
     id="rect37"
     style="opacity:0.15728155" />
  <rect
     class="c"
     x="789.21"
     y="761.1"
     width="92.01"
     height="10.34"
     id="rect38"
     style="opacity:0.15728155" />
  <rect
     class="c"
     x="789.21"
     y="774.45"
     width="92.01"
     height="10.34"
     id="rect39"
     style="opacity:0.15728155" />
  <rect
     class="c"
     x="789.21"
     y="787.79"
     width="92.01"
     height="10.34"
     id="rect40"
     style="opacity:0.15728155" />
  <rect
     class="c"
     x="789.21"
     y="801.14"
     width="92.01"
     height="10.34"
     id="rect41"
     style="opacity:0.15728155" />
  <rect
     class="c"
     x="789.21"
     y="814.48"
     width="92.01"
     height="10.34"
     id="rect42"
     style="opacity:0.15728155" />
  <rect
     class="c"
     x="789.21"
     y="827.82"
     width="92.01"
     height="10.34"
     id="rect43"
     style="opacity:0.15728155" />
  <rect
     class="c"
     x="789.21"
     y="841.17"
     width="92.01"
     height="10.34"
     id="rect44"
     style="opacity:0.15728155" />
  <rect
     class="c"
     x="789.21"
     y="854.51"
     width="92.01"
     height="10.34"
     id="rect45"
     style="opacity:0.15728155" />
  <rect
     class="c"
     x="638.03"
     y="774.45"
     width="92.01"
     height="10.34"
     transform="translate(1463.65 95.58) rotate(90)"
     id="rect46"
     style="opacity:0.15728155" />
  <rect
     class="c"
     x="610.47"
     y="774.45"
     width="92.01"
     height="10.34"
     transform="translate(1436.09 123.14) rotate(90)"
     id="rect47"
     style="opacity:0.15728155" />
  <rect
     class="c"
     x="582.91"
     y="774.45"
     width="92.01"
     height="10.34"
     transform="translate(1408.53 150.7) rotate(90)"
     id="rect48"
     style="opacity:0.15728155" />
  <rect
     class="c"
     x="555.35"
     y="774.45"
     width="92.01"
     height="10.34"
     transform="translate(1380.97 178.26) rotate(90)"
     id="rect49"
     style="opacity:0.15728155" />
  <rect
     class="c"
     x="527.79"
     y="774.45"
     width="92.01"
     height="10.34"
     transform="translate(1353.41 205.82) rotate(90)"
     id="rect50"
     style="opacity:0.15728155" />
  <rect
     class="c"
     x="500.23"
     y="774.45"
     width="92.01"
     height="10.34"
     transform="translate(1325.86 233.38) rotate(90)"
     id="rect51"
     style="opacity:0.15728155" />
  <circle
     class="a"
     cx="296.08"
     cy="707.72"
     r="14.77"
     id="circle51"
     style="opacity:0.15728155" />
  <circle
     class="a"
     cx="339.49"
     cy="707.72"
     r="14.77"
     id="circle52"
     style="opacity:0.15728155" />
  <circle
     class="a"
     cx="382.89"
     cy="707.72"
     r="14.77"
     id="circle53"
     style="opacity:0.15728155" />
  <circle
     class="a"
     cx="426.29"
     cy="707.72"
     r="14.77"
     id="circle54"
     style="opacity:0.15728155" />
  <circle
     class="a"
     cx="296.08"
     cy="755.65"
     r="14.77"
     id="circle55"
     style="opacity:0.15728155" />
  <circle
     class="a"
     cx="339.49"
     cy="755.65"
     r="14.77"
     id="circle56"
     style="opacity:0.15728155" />
  <circle
     class="a"
     cx="382.89"
     cy="755.65"
     r="14.77"
     id="circle57"
     style="opacity:0.15728155" />
  <circle
     class="a"
     cx="426.29"
     cy="755.65"
     r="14.77"
     id="circle58"
     style="opacity:0.15728155" />
  <circle
     class="a"
     cx="296.08"
     cy="803.58"
     r="14.77"
     id="circle59"
     style="opacity:0.15728155" />
  <circle
     class="a"
     cx="339.49"
     cy="803.58"
     r="14.77"
     id="circle60"
     style="opacity:0.15728155" />
  <circle
     class="a"
     cx="382.89"
     cy="803.58"
     r="14.77"
     id="circle61"
     style="opacity:0.15728155" />
  <circle
     class="a"
     cx="426.29"
     cy="803.58"
     r="14.77"
     id="circle62"
     style="opacity:0.15728155" />
  <circle
     class="a"
     cx="296.08"
     cy="851.51"
     r="14.77"
     id="circle63"
     style="opacity:0.15728155" />
  <circle
     class="a"
     cx="339.49"
     cy="851.51"
     r="14.77"
     id="circle64"
     style="opacity:0.15728155" />
  <circle
     class="a"
     cx="382.89"
     cy="851.51"
     r="14.77"
     id="circle65"
     style="opacity:0.15728155" />
  <circle
     class="a"
     cx="426.29"
     cy="851.51"
     r="14.77"
     id="circle66"
     style="opacity:0.15728155" />
  <path
     class="c"
     d="M271,964.42h85.58A85.58,85.58,0,0,1,442.13,1050v0a85.58,85.58,0,0,1-85.58,85.58H271a0,0,0,0,1,0,0V964.42A0,0,0,0,1,271,964.42Z"
     transform="translate(-693.45 1406.55) rotate(-90)"
     id="path66"
     style="opacity:0.15728155" />
  <path
     class="c"
     d="M661.68,997.33H541.79a79.79,79.79,0,0,1,119.89,0Z"
     id="path67"
     style="opacity:0.15728155" />
  <path
     class="c"
     d="M675.92,1020.55H527.55a80.87,80.87,0,0,1,5.75-11.61H670.17A78.83,78.83,0,0,1,675.92,1020.55Z"
     id="path68"
     style="opacity:0.15728155" />
  <path
     class="c"
     d="M681.29,1043.78H522.18a77.74,77.74,0,0,1,1.76-11.61H679.53A79.06,79.06,0,0,1,681.29,1043.78Z"
     id="path69"
     style="opacity:0.15728155" />
  <path
     class="c"
     d="M541.08,1101.84H662.4a79.77,79.77,0,0,1-109,11.61A78.48,78.48,0,0,1,541.08,1101.84Z"
     id="path70"
     style="opacity:0.15728155" />
  <path
     class="c"
     d="M676.24,1078.62a79,79,0,0,1-5.58,11.61H532.81a80,80,0,0,1-5.58-11.61Z"
     id="path71"
     style="opacity:0.15728155" />
  <path
     class="c"
     d="M681.34,1055.39a77.65,77.65,0,0,1-1.63,11.61h-156a77.65,77.65,0,0,1-1.63-11.61Z"
     id="path72"
     style="opacity:0.15728155" />
  <line
     class="d"
     x1="661.68"
     y1="997.33"
     x2="541.79"
     y2="997.33"
     id="line72"
     style="opacity:0.15728155" />
  <line
     class="d"
     x1="670.17"
     y1="1008.94"
     x2="533.3"
     y2="1008.94"
     id="line73"
     style="opacity:0.15728155" />
  <line
     class="d"
     x1="675.92"
     y1="1020.55"
     x2="527.55"
     y2="1020.55"
     id="line74"
     style="opacity:0.15728155" />
  <line
     class="d"
     x1="679.53"
     y1="1032.17"
     x2="523.94"
     y2="1032.17"
     id="line75"
     style="opacity:0.15728155" />
  <line
     class="d"
     x1="681.29"
     y1="1043.78"
     x2="522.18"
     y2="1043.78"
     id="line76"
     style="opacity:0.15728155" />
  <line
     class="d"
     x1="681.34"
     y1="1055.39"
     x2="522.13"
     y2="1055.39"
     id="line77"
     style="opacity:0.15728155" />
  <line
     class="d"
     x1="679.71"
     y1="1067"
     x2="523.76"
     y2="1067"
     id="line78"
     style="opacity:0.15728155" />
  <line
     class="d"
     x1="676.24"
     y1="1078.62"
     x2="527.23"
     y2="1078.62"
     id="line79"
     style="opacity:0.15728155" />
  <line
     class="d"
     x1="670.66"
     y1="1090.23"
     x2="532.81"
     y2="1090.23"
     id="line80"
     style="opacity:0.15728155" />
  <line
     class="d"
     x1="662.4"
     y1="1101.84"
     x2="541.08"
     y2="1101.84"
     id="line81"
     style="opacity:0.15728155" />
  <line
     class="d"
     x1="650.12"
     y1="1113.45"
     x2="553.36"
     y2="1113.45"
     id="line82"
     style="opacity:0.15728155" />
  <polygon
     class="a"
     points="109.09 979.09 190.98 1120.91 27.21 1120.91 109.09 979.09"
     id="polygon82"
     style="opacity:0.15728155" />
  <polygon
     class="a"
     points="938.95 1065.22 938.95 1034.78 965.32 1050 938.95 1065.22"
     id="polygon83"
     style="opacity:0.15728155" />
  <polygon
     class="a"
     points="921.57 1075.26 921.57 1024.74 930.26 1029.76 930.26 1070.24 921.57 1075.26"
     id="polygon84"
     style="opacity:0.15728155" />
  <polygon
     class="a"
     points="904.2 1085.29 904.2 1014.72 912.89 1019.73 912.89 1080.27 904.2 1085.29"
     id="polygon85"
     style="opacity:0.15728155" />
  <polygon
     class="a"
     points="886.83 1095.32 886.83 1004.68 895.51 1009.7 895.51 1090.3 886.83 1095.32"
     id="polygon86"
     style="opacity:0.15728155" />
  <polygon
     class="a"
     points="869.56 1105.28 869.56 994.72 878.13 999.67 878.13 1100.33 869.56 1105.28"
     id="polygon87"
     style="opacity:0.15728155" />
  <polygon
     class="a"
     points="775.24 1034.78 775.24 1065.22 748.88 1050 775.24 1034.78"
     id="polygon88"
     style="opacity:0.15728155" />
  <polygon
     class="a"
     points="792.62 1024.74 792.62 1075.26 783.93 1070.24 783.93 1029.76 792.62 1024.74"
     id="polygon89"
     style="opacity:0.15728155" />
  <polygon
     class="a"
     points="810 1014.71 810 1085.28 801.3 1080.27 801.3 1019.73 810 1014.71"
     id="polygon90"
     style="opacity:0.15728155" />
  <polygon
     class="a"
     points="827.37 1004.68 827.37 1095.32 818.68 1090.3 818.68 1009.7 827.37 1004.68"
     id="polygon91"
     style="opacity:0.15728155" />
  <polygon
     class="a"
     points="844.63 994.72 844.63 1105.28 836.06 1100.33 836.06 999.67 844.63 994.72"
     id="polygon92"
     style="opacity:0.15728155" />
  <circle
     class="a"
     cx="1037.17"
     cy="998.24"
     r="10.63"
     id="circle92"
     style="opacity:0.15728155" />
  <circle
     class="a"
     cx="1068.42"
     cy="998.24"
     r="10.63"
     id="circle93"
     style="opacity:0.15728155" />
  <circle
     class="a"
     cx="1099.66"
     cy="998.24"
     r="10.63"
     id="circle94"
     style="opacity:0.15728155" />
  <circle
     class="a"
     cx="1130.91"
     cy="998.24"
     r="10.63"
     id="circle95"
     style="opacity:0.15728155" />
  <circle
     class="a"
     cx="1037.17"
     cy="1032.75"
     r="10.63"
     id="circle96"
     style="opacity:0.15728155" />
  <circle
     class="a"
     cx="1068.42"
     cy="1032.75"
     r="10.63"
     id="circle97"
     style="opacity:0.15728155" />
  <circle
     class="a"
     cx="1099.66"
     cy="1032.75"
     r="10.63"
     id="circle98"
     style="opacity:0.15728155" />
  <circle
     class="a"
     cx="1130.91"
     cy="1032.75"
     r="10.63"
     id="circle99"
     style="opacity:0.15728155" />
  <circle
     class="a"
     cx="1037.17"
     cy="1067.25"
     r="10.63"
     id="circle100"
     style="opacity:0.15728155" />
  <circle
     class="a"
     cx="1068.42"
     cy="1067.25"
     r="10.63"
     id="circle101"
     style="opacity:0.15728155" />
  <circle
     class="a"
     cx="1099.66"
     cy="1067.25"
     r="10.63"
     id="circle102"
     style="opacity:0.15728155" />
  <circle
     class="a"
     cx="1130.91"
     cy="1067.25"
     r="10.63"
     id="circle103"
     style="opacity:0.15728155" />
  <circle
     class="a"
     cx="1037.17"
     cy="1101.76"
     r="10.63"
     id="circle104"
     style="opacity:0.15728155" />
  <circle
     class="a"
     cx="1068.42"
     cy="1101.76"
     r="10.63"
     id="circle105"
     style="opacity:0.15728155" />
  <circle
     class="a"
     cx="1099.66"
     cy="1101.76"
     r="10.63"
     id="circle106"
     style="opacity:0.15728155" />
  <circle
     class="a"
     cx="1130.91"
     cy="1101.76"
     r="10.63"
     id="circle107"
     style="opacity:0.15728155" />
  <metadata
     id="metadata107">
    <rdf:RDF>
      <cc:Work
         rdf:about="">
        <dc:title>Figuras_Rush_Web</dc:title>
      </cc:Work>
    </rdf:RDF>
  </metadata>
</svg>
