<svg xmlns="http://www.w3.org/2000/svg" viewBox="0 0 600 600"><defs><style>.a{fill:#35a2a9;}.b,.d{fill:none;stroke-miterlimit:10;}.b{stroke:#fff;stroke-linecap:round;stroke-width:11.54px;}.c{fill:#fff;}.d{stroke:#35a2a9;stroke-width:1.85px;}</style></defs><title>Pin_6</title><rect class="a" x="-0.5" width="600" height="600"/><path class="b" d="M214.8,474.23S182.37,505.86,182.37,600"/><path class="b" d="M360,474.23S392.45,505.86,392.45,600"/><rect class="c" x="214.8" y="474.23" width="145.22" height="125.77"/><rect class="a" x="218.99" y="477.46" width="136.85" height="3.92"/><path class="c" d="M356.07,272.45l-.09-77.3H142.53V479.61H427V272.45ZM209.46,397.54c-15,0-27.09-17.48-27.09-39s12.13-39,27.09-39,27.09,17.47,27.09,39S224.42,397.54,209.46,397.54Zm149.79,0c-15,0-27.09-17.48-27.09-39s12.13-39,27.09-39,27.09,17.47,27.09,39S374.22,397.54,359.25,397.54Z"/><rect class="c" x="426.19" y="198.34" width="30.28" height="30.28"/><rect class="c" x="385.55" y="184" width="20.72" height="20.72"/><rect class="c" x="372" y="222.25" width="38.25" height="38.25"/><path class="c" d="M560.83,340.1c0,47.94-35,86.92-78,86.92A70.6,70.6,0,0,1,459.37,423l-6.26-2.21,1.52-6.47a302.5,302.5,0,0,0,7.89-69.08c0-149.69-55.73-223.5-175.41-232.28-.13,0-.31,0-.52,0-.44,0-.88.06-1.33.08H285a.55.55,0,0,1-.18,0,.62.62,0,0,1-.19,0h-.26c-.44,0-.89,0-1.35-.08-.18,0-.37,0-.5,0-119.67,8.78-175.4,82.59-175.4,232.28A303.05,303.05,0,0,0,115,414.27l1.52,6.47L110.27,423A70.74,70.74,0,0,1,86.83,427c-43,0-78-39-78-86.92s35-86.89,78-86.89c.52,0,1,0,1.58,0,14.38-96.88,97.87-169.89,196.63-171,98.76,1.15,181.81,74.16,196.19,171,.52,0,1,0,1.57,0C525.83,253.21,560.83,292.19,560.83,340.1Z"/><rect class="d" x="424.6" y="198.76" width="30.28" height="30.28"/></svg>