<svg xmlns="http://www.w3.org/2000/svg" viewBox="0 0 600 600"><defs><style>.a{fill:#fff;}.b{fill:#4c4c4c;}.c{fill:#3a5a6f;}</style></defs><title>Graduado_icon</title><rect class="a" x="19.77" y="191.25" width="452.59" height="288.75"/><rect class="b" x="193.7" y="255.02" width="104.74" height="9.46" rx="3.35"/><rect class="b" x="67.53" y="418.87" width="150.27" height="9.46" rx="4.02"/><rect class="b" x="121.63" y="287.19" width="248.89" height="9.46" rx="3.95"/><rect class="b" x="121.63" y="319.37" width="248.89" height="9.46" rx="3.95"/><rect class="b" x="121.63" y="351.55" width="248.89" height="9.46" rx="3.95"/><path class="c" d="M420,357l5.63,12.77a9,9,0,0,0,9.2,5.31l13.87-1.51A9,9,0,0,1,457,387.82l-8.24,11.26a9,9,0,0,0,0,10.63L457,421a9,9,0,0,1-8.24,14.26l-13.87-1.51a9,9,0,0,0-9.2,5.32L420,451.8a9,9,0,0,1-16.47,0L397.93,439a9,9,0,0,0-9.2-5.32l-13.87,1.51A9,9,0,0,1,366.62,421l8.24-11.26a9,9,0,0,0,0-10.63l-8.24-11.26a9,9,0,0,1,8.24-14.26l13.87,1.51a9,9,0,0,0,9.2-5.31L403.56,357A9,9,0,0,1,420,357Z"/><polygon class="b" points="382.75 415.15 382.75 474.35 412.33 438.85 440.83 474.35 440.83 415.15 382.75 415.15"/><circle class="a" cx="411.79" cy="409.18" r="29.68"/><polygon class="b" points="473.68 287.58 366.21 282.12 307.02 192.25 350.4 116.41 517.07 211.74 473.68 287.58"/><rect class="b" x="286.66" y="137.41" width="308.11" height="28.91" transform="translate(133.56 -198.77) rotate(29.77)"/></svg>