<!DOCTYPE svg PUBLIC "-//W3C//DTD SVG 1.1//EN" "http://www.w3.org/Graphics/SVG/1.1/DTD/svg11.dtd">
<!-- Uploaded to: SVG Repo, www.svgrepo.com, Transformed by: SVG Repo Mixer Tools -->
<svg width="800px" height="800px" viewBox="0 0 24 24" xmlns="http://www.w3.org/2000/svg" fill="#ffffff">

<g id="SVGRepo_bgCarrier" stroke-width="0"/>

<g id="SVGRepo_tracerCarrier" stroke-linecap="round" stroke-linejoin="round"/>

<g id="SVGRepo_iconCarrier"> <g> <path fill="none" d="M0 0H24V24H0z"/> <path d="M15 3c.552 0 1 .448 1 1v4c0 .552-.448 1-1 1h-2v2h4c.552 0 1 .448 1 1v3h2c.552 0 1 .448 1 1v4c0 .552-.448 1-1 1h-6c-.552 0-1-.448-1-1v-4c0-.552.448-1 1-1h2v-2H8v2h2c.552 0 1 .448 1 1v4c0 .552-.448 1-1 1H4c-.552 0-1-.448-1-1v-4c0-.552.448-1 1-1h2v-3c0-.552.448-1 1-1h4V9H9c-.552 0-1-.448-1-1V4c0-.552.448-1 1-1h6zM9 17H5v2h4v-2zm10 0h-4v2h4v-2zM14 5h-4v2h4V5z"/> </g> </g>

</svg>