<?xml version="1.0" encoding="UTF-8" standalone="no" ?>
<!DOCTYPE svg PUBLIC "-//W3C//DTD SVG 1.1//EN" "http://www.w3.org/Graphics/SVG/1.1/DTD/svg11.dtd">
<svg xmlns="http://www.w3.org/2000/svg" xmlns:xlink="http://www.w3.org/1999/xlink" version="1.1" width="1080" height="1080" viewBox="0 0 1080 1080" xml:space="preserve">
<desc>Created with Fabric.js 5.2.4</desc>
<defs>
</defs>
<rect x="0" y="0" width="100%" height="100%" fill="transparent"></rect>
<g transform="matrix(1 0 0 1 540 540)" id="41ea41e2-c5f1-40c5-8ede-7cfb4aeb9da8"  >
<rect style="stroke: none; stroke-width: 1; stroke-dasharray: none; stroke-linecap: butt; stroke-dashoffset: 0; stroke-linejoin: miter; stroke-miterlimit: 4; fill: rgb(255,255,255); fill-rule: nonzero; opacity: 1; visibility: hidden;" vector-effect="non-scaling-stroke"  x="-540" y="-540" rx="0" ry="0" width="1080" height="1080" />
</g>
<g transform="matrix(1 0 0 1 540 540)" id="d1a220f3-d52e-4d2f-80fc-795a03bfee20"  >
</g>
<g transform="matrix(1.35 0 0 1.35 909.1 701.14)"  >
<g style="" vector-effect="non-scaling-stroke"   >
		<g transform="matrix(1 0 0 1 0 -136.14)"  >
<circle style="stroke: none; stroke-width: 1; stroke-dasharray: none; stroke-linecap: butt; stroke-dashoffset: 0; stroke-linejoin: miter; stroke-miterlimit: 4; fill: rgb(255,255,255); fill-rule: nonzero; opacity: 1;" vector-effect="non-scaling-stroke"  cx="0" cy="0" r="122.49" />
</g>
		<g transform="matrix(1 0 0 1 0 143.73)"  >
<path style="stroke: none; stroke-width: 1; stroke-dasharray: none; stroke-linecap: butt; stroke-dashoffset: 0; stroke-linejoin: miter; stroke-miterlimit: 4; fill: rgb(255,255,255); fill-rule: nonzero; opacity: 1;" vector-effect="non-scaling-stroke"  transform=" translate(-288.05, -444.33)" d="M 238.71 329.43 L 337.37 329.43 C 377.2779383201604 329.427347516636 415.55211275797376 345.2795394986453 443.77128662966425 373.49871337033574 C 471.9904605013547 401.71788724202617 487.84265248336396 439.99206167983965 487.84 479.9 L 487.84 533.17 C 487.84 540.0841938901169 485.09334717167354 546.715200399393 480.2042737855333 551.6042737855332 C 475.315200399393 556.4933471716736 468.6841938901169 559.24 461.77 559.24 L 114.32 559.24 C 107.40580610988307 559.24 100.77479960060694 556.4933471716736 95.88572621446669 551.6042737855332 C 90.99665282832643 546.715200399393 88.24999999999999 540.0841938901169 88.25 533.17 L 88.25 479.9 C 88.24734771994339 439.9937943562229 104.0981670352443 401.72113553815956 132.31517801268228 373.5022491778306 C 160.53218899012023 345.2833628175017 198.8037942680838 329.429999911861 238.7099999999999 329.43 Z" stroke-linecap="round" />
</g>
</g>
</g>
<g transform="matrix(1.48 0 0 1.48 571.79 803.07)"  >
<g style="" vector-effect="non-scaling-stroke"   >
		<g transform="matrix(1 0 0 1 0 -136.14)"  >
<circle style="stroke: none; stroke-width: 1; stroke-dasharray: none; stroke-linecap: butt; stroke-dashoffset: 0; stroke-linejoin: miter; stroke-miterlimit: 4; fill: rgb(255,255,255); fill-rule: nonzero; opacity: 1;" vector-effect="non-scaling-stroke"  cx="0" cy="0" r="122.49" />
</g>
		<g transform="matrix(1 0 0 1 0 143.73)"  >
<path style="stroke: none; stroke-width: 1; stroke-dasharray: none; stroke-linecap: butt; stroke-dashoffset: 0; stroke-linejoin: miter; stroke-miterlimit: 4; fill: rgb(255,255,255); fill-rule: nonzero; opacity: 1;" vector-effect="non-scaling-stroke"  transform=" translate(-288.05, -444.33)" d="M 238.71 329.43 L 337.37 329.43 C 377.2779383201604 329.427347516636 415.55211275797376 345.2795394986453 443.77128662966425 373.49871337033574 C 471.9904605013547 401.71788724202617 487.84265248336396 439.99206167983965 487.84 479.9 L 487.84 533.17 C 487.84 540.0841938901169 485.09334717167354 546.715200399393 480.2042737855333 551.6042737855332 C 475.315200399393 556.4933471716736 468.6841938901169 559.24 461.77 559.24 L 114.32 559.24 C 107.40580610988307 559.24 100.77479960060694 556.4933471716736 95.88572621446669 551.6042737855332 C 90.99665282832643 546.715200399393 88.24999999999999 540.0841938901169 88.25 533.17 L 88.25 479.9 C 88.24734771994339 439.9937943562229 104.0981670352443 401.72113553815956 132.31517801268228 373.5022491778306 C 160.53218899012023 345.2833628175017 198.8037942680838 329.429999911861 238.7099999999999 329.43 Z" stroke-linecap="round" />
</g>
</g>
</g>
<g transform="matrix(1.48 0 0 1.48 214.83 702.7)"  >
<g style="" vector-effect="non-scaling-stroke"   >
		<g transform="matrix(1 0 0 1 0 -136.14)"  >
<circle style="stroke: none; stroke-width: 1; stroke-dasharray: none; stroke-linecap: butt; stroke-dashoffset: 0; stroke-linejoin: miter; stroke-miterlimit: 4; fill: rgb(255,255,255); fill-rule: nonzero; opacity: 1;" vector-effect="non-scaling-stroke"  cx="0" cy="0" r="122.49" />
</g>
		<g transform="matrix(1 0 0 1 0 143.73)"  >
<path style="stroke: none; stroke-width: 1; stroke-dasharray: none; stroke-linecap: butt; stroke-dashoffset: 0; stroke-linejoin: miter; stroke-miterlimit: 4; fill: rgb(255,255,255); fill-rule: nonzero; opacity: 1;" vector-effect="non-scaling-stroke"  transform=" translate(-288.05, -444.33)" d="M 238.71 329.43 L 337.37 329.43 C 377.2779383201604 329.427347516636 415.55211275797376 345.2795394986453 443.77128662966425 373.49871337033574 C 471.9904605013547 401.71788724202617 487.84265248336396 439.99206167983965 487.84 479.9 L 487.84 533.17 C 487.84 540.0841938901169 485.09334717167354 546.715200399393 480.2042737855333 551.6042737855332 C 475.315200399393 556.4933471716736 468.6841938901169 559.24 461.77 559.24 L 114.32 559.24 C 107.40580610988307 559.24 100.77479960060694 556.4933471716736 95.88572621446669 551.6042737855332 C 90.99665282832643 546.715200399393 88.24999999999999 540.0841938901169 88.25 533.17 L 88.25 479.9 C 88.24734771994339 439.9937943562229 104.0981670352443 401.72113553815956 132.31517801268228 373.5022491778306 C 160.53218899012023 345.2833628175017 198.8037942680838 329.429999911861 238.7099999999999 329.43 Z" stroke-linecap="round" />
</g>
</g>
</g>
<g transform="matrix(1.35 0 0 1.35 381.99 608.9)"  >
<g style="opacity: 0.53;" vector-effect="non-scaling-stroke"   >
		<g transform="matrix(1 0 0 1 0 -136.14)"  >
<circle style="stroke: none; stroke-width: 1; stroke-dasharray: none; stroke-linecap: butt; stroke-dashoffset: 0; stroke-linejoin: miter; stroke-miterlimit: 4; fill: rgb(255,255,255); fill-rule: nonzero; opacity: 1;" vector-effect="non-scaling-stroke"  cx="0" cy="0" r="122.49" />
</g>
		<g transform="matrix(1 0 0 1 0 143.73)"  >
<path style="stroke: none; stroke-width: 1; stroke-dasharray: none; stroke-linecap: butt; stroke-dashoffset: 0; stroke-linejoin: miter; stroke-miterlimit: 4; fill: rgb(255,255,255); fill-rule: nonzero; opacity: 1;" vector-effect="non-scaling-stroke"  transform=" translate(-288.05, -444.33)" d="M 238.71 329.43 L 337.37 329.43 C 377.2779383201604 329.427347516636 415.55211275797376 345.2795394986453 443.77128662966425 373.49871337033574 C 471.9904605013547 401.71788724202617 487.84265248336396 439.99206167983965 487.84 479.9 L 487.84 533.17 C 487.84 540.0841938901169 485.09334717167354 546.715200399393 480.2042737855333 551.6042737855332 C 475.315200399393 556.4933471716736 468.6841938901169 559.24 461.77 559.24 L 114.32 559.24 C 107.40580610988307 559.24 100.77479960060694 556.4933471716736 95.88572621446669 551.6042737855332 C 90.99665282832643 546.715200399393 88.24999999999999 540.0841938901169 88.25 533.17 L 88.25 479.9 C 88.24734771994339 439.9937943562229 104.0981670352443 401.72113553815956 132.31517801268228 373.5022491778306 C 160.53218899012023 345.2833628175017 198.8037942680838 329.429999911861 238.7099999999999 329.43 Z" stroke-linecap="round" />
</g>
</g>
</g>
<g transform="matrix(1.35 0 0 1.35 716.99 653.91)"  >
<g style="opacity: 0.31;" vector-effect="non-scaling-stroke"   >
		<g transform="matrix(1 0 0 1 0 -136.14)"  >
<circle style="stroke: none; stroke-width: 1; stroke-dasharray: none; stroke-linecap: butt; stroke-dashoffset: 0; stroke-linejoin: miter; stroke-miterlimit: 4; fill: rgb(255,255,255); fill-rule: nonzero; opacity: 1;" vector-effect="non-scaling-stroke"  cx="0" cy="0" r="122.49" />
</g>
		<g transform="matrix(1 0 0 1 0 143.73)"  >
<path style="stroke: none; stroke-width: 1; stroke-dasharray: none; stroke-linecap: butt; stroke-dashoffset: 0; stroke-linejoin: miter; stroke-miterlimit: 4; fill: rgb(255,255,255); fill-rule: nonzero; opacity: 1;" vector-effect="non-scaling-stroke"  transform=" translate(-288.05, -444.33)" d="M 238.71 329.43 L 337.37 329.43 C 377.2779383201604 329.427347516636 415.55211275797376 345.2795394986453 443.77128662966425 373.49871337033574 C 471.9904605013547 401.71788724202617 487.84265248336396 439.99206167983965 487.84 479.9 L 487.84 533.17 C 487.84 540.0841938901169 485.09334717167354 546.715200399393 480.2042737855333 551.6042737855332 C 475.315200399393 556.4933471716736 468.6841938901169 559.24 461.77 559.24 L 114.32 559.24 C 107.40580610988307 559.24 100.77479960060694 556.4933471716736 95.88572621446669 551.6042737855332 C 90.99665282832643 546.715200399393 88.24999999999999 540.0841938901169 88.25 533.17 L 88.25 479.9 C 88.24734771994339 439.9937943562229 104.0981670352443 401.72113553815956 132.31517801268228 373.5022491778306 C 160.53218899012023 345.2833628175017 198.8037942680838 329.429999911861 238.7099999999999 329.43 Z" stroke-linecap="round" />
</g>
</g>
</g>
<g transform="matrix(-1.35 0 0 -1.35 920.32 1263.91)"  >
<g style="" vector-effect="non-scaling-stroke"   >
		<g transform="matrix(1 0 0 1 0 -136.14)"  >
<circle style="stroke: none; stroke-width: 1; stroke-dasharray: none; stroke-linecap: butt; stroke-dashoffset: 0; stroke-linejoin: miter; stroke-miterlimit: 4; fill: rgb(255,255,255); fill-rule: nonzero; opacity: 1;" vector-effect="non-scaling-stroke"  cx="0" cy="0" r="122.49" />
</g>
		<g transform="matrix(1 0 0 1 0 143.73)"  >
<path style="stroke: none; stroke-width: 1; stroke-dasharray: none; stroke-linecap: butt; stroke-dashoffset: 0; stroke-linejoin: miter; stroke-miterlimit: 4; fill: rgb(255,255,255); fill-rule: nonzero; opacity: 1;" vector-effect="non-scaling-stroke"  transform=" translate(-288.05, -444.33)" d="M 238.71 329.43 L 337.37 329.43 C 377.2779383201604 329.427347516636 415.55211275797376 345.2795394986453 443.77128662966425 373.49871337033574 C 471.9904605013547 401.71788724202617 487.84265248336396 439.99206167983965 487.84 479.9 L 487.84 533.17 C 487.84 540.0841938901169 485.09334717167354 546.715200399393 480.2042737855333 551.6042737855332 C 475.315200399393 556.4933471716736 468.6841938901169 559.24 461.77 559.24 L 114.32 559.24 C 107.40580610988307 559.24 100.77479960060694 556.4933471716736 95.88572621446669 551.6042737855332 C 90.99665282832643 546.715200399393 88.24999999999999 540.0841938901169 88.25 533.17 L 88.25 479.9 C 88.24734771994339 439.9937943562229 104.0981670352443 401.72113553815956 132.31517801268228 373.5022491778306 C 160.53218899012023 345.2833628175017 198.8037942680838 329.429999911861 238.7099999999999 329.43 Z" stroke-linecap="round" />
</g>
</g>
</g>
</svg>