<svg xmlns="http://www.w3.org/2000/svg" viewBox="0 0 600 600"><defs><style>.a{fill:#0f6794;}.b{fill:#fff;}</style></defs><title>Icon_Graduado</title><circle class="a" cx="300" cy="300" r="269.25"/><polygon class="b" points="403.61 343.85 403.61 494.62 196.59 494.62 196.59 287.6 351.94 287.6 352 343.85 403.61 343.85"/><ellipse class="a" cx="245.3" cy="406.48" rx="19.72" ry="28.41"/><ellipse class="a" cx="354.32" cy="406.48" rx="19.72" ry="28.41"/><rect class="b" x="403.03" y="289.92" width="22.04" height="22.04"/><rect class="b" x="373.46" y="279.48" width="15.08" height="15.08"/><rect class="b" x="363.6" y="307.32" width="27.83" height="27.83"/><path class="b" d="M138.32,151.34c10.22-3,19.6-5.67,29-8.37q64.77-18.6,129.57-37.15a11.12,11.12,0,0,1,5.78-.11Q380.39,127.91,458,150.3c1,.28,2,.61,3.65,1.14-12.54,3.61-24.35,7-36.18,10.41Q364.21,179.45,302.9,197a8.83,8.83,0,0,1-4.54.3c-20.16-5.67-40.27-11.47-61.11-17.45,1.3-.64,2-1.07,2.81-1.37,13.77-5.23,27.53-10.49,41.35-15.58a5.51,5.51,0,0,1,4.21.53c8.45,5.35,21.15,5.28,29.37-.36,8.42-5.78,8.95-16,1.18-22.46-8.8-7.34-25.19-7-33.27,1a18.7,18.7,0,0,0-4.25,7.83c-.57,2-1.18,3-3.08,3.69-17.24,6.47-34.49,12.92-51.63,19.64a14.14,14.14,0,0,1-9.9.51c-24.23-7.1-48.53-14-72.8-21C140.54,152.11,139.85,151.85,138.32,151.34Z"/><path class="b" d="M228.8,189C251,195.38,272.51,201.5,294,207.79a20.52,20.52,0,0,0,12,0c27.58-8,55.2-15.85,82.78-23.85,2.34-.68,3.23-.2,4.27,1.92A107.87,107.87,0,0,1,403,217.65c1,6.46-1.67,11.85-7.6,14.49-30,13.34-60.67,24.47-93,30.5a13.79,13.79,0,0,1-5,.1c-18.25-3.38-35.93-8.84-53.37-15.13-.28-.1-.52-.32-.38-.23.52-4.15,1.57-8.08,1.37-11.93-.49-8.92-5.36-15.09-13.52-18.54-1.93-.81-2.76-1.63-2.72-3.83C228.89,205.21,228.8,197.33,228.8,189Z"/><path class="b" d="M239.47,307.4H209.64c-.83,0-1.66-.09-2.77-.16,1.44-7.91,2.84-15.65,4.25-23.39q3-16.14,5.94-32.27A8.39,8.39,0,0,0,215,244a10.6,10.6,0,0,1,.83-14.81,10.9,10.9,0,0,1,14.65-.14,10.46,10.46,0,0,1,1.13,14.76,9.17,9.17,0,0,0-2.05,8.42c3.3,17.25,6.39,34.54,9.54,51.82C239.29,305.07,239.33,306.11,239.47,307.4Z"/><path class="b" d="M202.25,230.48c-4.59-3.46-6-7.94-5.19-13.18a105.77,105.77,0,0,1,10-31.77c.93-1.88,1.78-2.31,3.85-1.69,6.78,2,6.81,1.94,6.81,9.09,0,6.85,0,13.69-.06,20.54,0,.94-.58,2.47-1.26,2.72C209.52,218.71,205,223.47,202.25,230.48Z"/><circle class="b" cx="300" cy="151.13" r="9.49"/><path class="a" d="M227.17,312.38H210c-.74,0-1.4-.05-2.1-.1l-1-.07-5.58-.35,2.37-13c1-5.32,1.92-10.59,2.88-15.86l.7-3.83q2.61-14.24,5.24-28.46a3.46,3.46,0,0,0-.94-3.39,15.77,15.77,0,0,1,22.59-21.89A15.39,15.39,0,0,1,235.76,247a4.33,4.33,0,0,0-1,4.29c2.59,13.54,5.09,27.32,7.51,40.65l2,11.21c.16.9.24,1.75.31,2.57,0,.36.07.73.11,1.13l.59,5.5Z"/><path class="b" d="M239.8,307.41H210c-.83,0-1.66-.1-2.77-.17,1.44-7.91,2.84-15.65,4.25-23.38q3-16.14,5.94-32.27a8.38,8.38,0,0,0-2-7.55,10.6,10.6,0,0,1,.83-14.81,10.88,10.88,0,0,1,14.65-.14A10.46,10.46,0,0,1,232,243.84a9.16,9.16,0,0,0-2,8.41c3.3,17.26,6.39,34.55,9.54,51.83C239.62,305.08,239.66,306.11,239.8,307.41Z"/></svg>