<?xml version="1.0" encoding="UTF-8" standalone="no" ?>
<!DOCTYPE svg PUBLIC "-//W3C//DTD SVG 1.1//EN" "http://www.w3.org/Graphics/SVG/1.1/DTD/svg11.dtd">
<svg xmlns="http://www.w3.org/2000/svg" xmlns:xlink="http://www.w3.org/1999/xlink" version="1.1" width="1080" height="1080" viewBox="0 0 1080 1080" xml:space="preserve">
<desc>Created with Fabric.js 5.2.4</desc>
<defs>
</defs>
<rect x="0" y="0" width="100%" height="100%" fill="transparent"></rect>
<g transform="matrix(1 0 0 1 540 540)" id="b2829ed1-2db7-4a25-97be-d9756df9608c"  >
<rect style="stroke: none; stroke-width: 1; stroke-dasharray: none; stroke-linecap: butt; stroke-dashoffset: 0; stroke-linejoin: miter; stroke-miterlimit: 4; fill: rgb(255,255,255); fill-rule: nonzero; opacity: 1; visibility: hidden;" vector-effect="non-scaling-stroke"  x="-540" y="-540" rx="0" ry="0" width="1080" height="1080" />
</g>
<g transform="matrix(1 0 0 1 540 540)" id="fa4332b4-047a-41f2-9e98-7d3f449e27a5"  >
</g>
<g transform="matrix(1.74 0 0 1.74 574.15 501.67)"  >
<g style="" vector-effect="non-scaling-stroke"   >
		<g transform="matrix(1 0 0 1 0 16.77)"  >
<rect style="stroke: none; stroke-width: 1; stroke-dasharray: none; stroke-linecap: butt; stroke-dashoffset: 0; stroke-linejoin: miter; stroke-miterlimit: 4; fill: rgb(255,255,255); fill-rule: nonzero; opacity: 1;" vector-effect="non-scaling-stroke"  x="-159.785" y="-209.075" rx="23.77" ry="23.77" width="319.57" height="418.15" />
</g>
		<g transform="matrix(0 1 -1 0 -0.01 -192.3)"  >
<rect style="stroke: none; stroke-width: 1; stroke-dasharray: none; stroke-linecap: butt; stroke-dashoffset: 0; stroke-linejoin: miter; stroke-miterlimit: 4; fill: rgb(58,90,111); fill-rule: nonzero; opacity: 1;" vector-effect="non-scaling-stroke"  x="-33.545" y="-95.58" rx="17.98" ry="17.98" width="67.09" height="191.16" />
</g>
		<g transform="matrix(1 0 0 1 -0.01 -192.3)"  >
<rect style="stroke: none; stroke-width: 1; stroke-dasharray: none; stroke-linecap: butt; stroke-dashoffset: 0; stroke-linejoin: miter; stroke-miterlimit: 4; fill: rgb(255,255,255); fill-rule: nonzero; opacity: 1;" vector-effect="non-scaling-stroke"  x="-88.295" y="-26.26" rx="10.7" ry="10.7" width="176.59" height="52.52" />
</g>
		<g transform="matrix(1 0 0 1 -48.32 -86.2)"  >
<rect style="stroke: none; stroke-width: 1; stroke-dasharray: none; stroke-linecap: butt; stroke-dashoffset: 0; stroke-linejoin: miter; stroke-miterlimit: 4; fill: rgb(76,76,76); fill-rule: nonzero; opacity: 1;" vector-effect="non-scaling-stroke"  x="-90.615" y="-3.445" rx="2.88" ry="2.88" width="181.23" height="6.89" />
</g>
		<g transform="matrix(1 0 0 1 -48.32 -62.77)"  >
<rect style="stroke: none; stroke-width: 1; stroke-dasharray: none; stroke-linecap: butt; stroke-dashoffset: 0; stroke-linejoin: miter; stroke-miterlimit: 4; fill: rgb(76,76,76); fill-rule: nonzero; opacity: 1;" vector-effect="non-scaling-stroke"  x="-90.615" y="-3.445" rx="2.88" ry="2.88" width="181.23" height="6.89" />
</g>
		<g transform="matrix(1 0 0 1 -48.32 -39.35)"  >
<rect style="stroke: none; stroke-width: 1; stroke-dasharray: none; stroke-linecap: butt; stroke-dashoffset: 0; stroke-linejoin: miter; stroke-miterlimit: 4; fill: rgb(76,76,76); fill-rule: nonzero; opacity: 1;" vector-effect="non-scaling-stroke"  x="-90.615" y="-3.445" rx="2.88" ry="2.88" width="181.23" height="6.89" />
</g>
		<g transform="matrix(1 0 0 1 -47.6 85.09)"  >
<rect style="stroke: none; stroke-width: 1; stroke-dasharray: none; stroke-linecap: butt; stroke-dashoffset: 0; stroke-linejoin: miter; stroke-miterlimit: 4; fill: rgb(76,76,76); fill-rule: nonzero; opacity: 1;" vector-effect="non-scaling-stroke"  x="-90.615" y="-3.445" rx="2.88" ry="2.88" width="181.23" height="6.89" />
</g>
		<g transform="matrix(1 0 0 1 -47.6 108.52)"  >
<rect style="stroke: none; stroke-width: 1; stroke-dasharray: none; stroke-linecap: butt; stroke-dashoffset: 0; stroke-linejoin: miter; stroke-miterlimit: 4; fill: rgb(76,76,76); fill-rule: nonzero; opacity: 1;" vector-effect="non-scaling-stroke"  x="-90.615" y="-3.445" rx="2.88" ry="2.88" width="181.23" height="6.89" />
</g>
		<g transform="matrix(1 0 0 1 -47.6 131.95)"  >
<rect style="stroke: none; stroke-width: 1; stroke-dasharray: none; stroke-linecap: butt; stroke-dashoffset: 0; stroke-linejoin: miter; stroke-miterlimit: 4; fill: rgb(76,76,76); fill-rule: nonzero; opacity: 1;" vector-effect="non-scaling-stroke"  x="-90.615" y="-3.445" rx="2.88" ry="2.88" width="181.23" height="6.89" />
</g>
		<g transform="matrix(0 1 -1 0 98.8 -62.78)"  >
<rect style="stroke: none; stroke-width: 1; stroke-dasharray: none; stroke-linecap: butt; stroke-dashoffset: 0; stroke-linejoin: miter; stroke-miterlimit: 4; fill: rgb(58,90,111); fill-rule: nonzero; opacity: 1;" vector-effect="non-scaling-stroke"  x="-38.735" y="-38.74" rx="23.22" ry="23.22" width="77.47" height="77.48" />
</g>
		<g transform="matrix(1 0 0 1 98.81 -62.77)"  >
<rect style="stroke: none; stroke-width: 1; stroke-dasharray: none; stroke-linecap: butt; stroke-dashoffset: 0; stroke-linejoin: miter; stroke-miterlimit: 4; fill: rgb(255,255,255); fill-rule: nonzero; opacity: 1;" vector-effect="non-scaling-stroke"  x="-31.455" y="-31.455" rx="15.93" ry="15.93" width="62.91" height="62.91" />
</g>
		<g transform="matrix(0 1 -1 0 98.81 105.07)"  >
<rect style="stroke: none; stroke-width: 1; stroke-dasharray: none; stroke-linecap: butt; stroke-dashoffset: 0; stroke-linejoin: miter; stroke-miterlimit: 4; fill: rgb(58,90,111); fill-rule: nonzero; opacity: 1;" vector-effect="non-scaling-stroke"  x="-38.735" y="-38.74" rx="23.22" ry="23.22" width="77.47" height="77.48" />
</g>
		<g transform="matrix(1 0 0 1 98.81 105.07)"  >
<rect style="stroke: none; stroke-width: 1; stroke-dasharray: none; stroke-linecap: butt; stroke-dashoffset: 0; stroke-linejoin: miter; stroke-miterlimit: 4; fill: rgb(255,255,255); fill-rule: nonzero; opacity: 1;" vector-effect="non-scaling-stroke"  x="-31.455" y="-31.455" rx="15.93" ry="15.93" width="62.91" height="62.91" />
</g>
</g>
</g>
<g transform="matrix(0.57 0 0 0.57 285.1 804.9)"  >
<g style="" vector-effect="non-scaling-stroke"   >
		<g transform="matrix(1 0 0 1 0 0)"  >
<circle style="stroke: none; stroke-width: 1; stroke-dasharray: none; stroke-linecap: butt; stroke-dashoffset: 0; stroke-linejoin: miter; stroke-miterlimit: 4; fill: rgb(255,255,255); fill-rule: nonzero; opacity: 1;" vector-effect="non-scaling-stroke"  cx="0" cy="0" r="254.19" />
</g>
		<g transform="matrix(1 0 0 1 0 0)"  >
<path style="stroke: none; stroke-width: 1; stroke-dasharray: none; stroke-linecap: butt; stroke-dashoffset: 0; stroke-linejoin: miter; stroke-miterlimit: 4; fill: rgb(58,90,111); fill-rule: nonzero; opacity: 1;" vector-effect="non-scaling-stroke"  transform=" translate(-300, -300)" d="M 471.92 274.36 L 471.92 324.2 C 471.92000074989966 328.8934128296545 470.0548655945272 333.3944496779376 466.7351839250769 336.71225582102096 C 463.4155022556266 340.03006196410433 458.91341207975495 341.8926531446183 454.22 341.89 L 342.62 341.89 L 342.62 454.22 C 342.61447935685663 463.9970574484864 334.6870590071095 471.92000155862326 324.91 471.92 L 274.36 471.92 C 264.584559927995 471.92 256.66 463.99544007200507 256.66 454.22 L 256.66 341.89 L 145.78 341.89 C 141.08658792024508 341.8926531446183 136.58449774437338 340.03006196410433 133.26481607492312 336.71225582102096 C 129.94513440547283 333.3944496779376 128.0799992501004 328.8934128296545 128.08 324.2 L 128.08 274.36 C 128.07734512503316 269.66485474724715 129.94130863512288 265.1612477903876 133.26127821275523 261.84127821275524 C 136.5812477903876 258.52130863512286 141.08485474724714 256.6573451250332 145.78 256.66 L 256.66 256.66 L 256.66 145.78 C 256.66 136.00455992799496 264.584559927995 128.08 274.36 128.08 L 324.91 128.08 C 334.6870590071095 128.07999844137677 342.61447935685663 136.00294255151366 342.62 145.78 L 342.62 256.66 L 454.22 256.66 C 458.9151452527529 256.6573451250332 463.4187522096124 258.52130863512286 466.7387217872448 261.84127821275524 C 470.0586913648772 265.1612477903876 471.92265487496684 269.6648547472471 471.92 274.36 Z" stroke-linecap="round" />
</g>
</g>
</g>
</svg>