<svg xmlns="http://www.w3.org/2000/svg" viewBox="0 0 600 600"><defs><style>.a{fill:#7bd166;}.b{fill:#fff;}</style></defs><title>Icon_Calendario</title><circle class="a" cx="300" cy="300" r="269.25"/><polygon class="b" points="392.78 357.35 392.78 508.12 185.76 508.12 185.76 301.1 341.11 301.1 341.17 357.35 392.78 357.35"/><ellipse class="a" cx="234.47" cy="419.98" rx="19.72" ry="28.41"/><ellipse class="a" cx="343.49" cy="419.98" rx="19.72" ry="28.41"/><rect class="b" x="392.2" y="303.42" width="22.04" height="22.04"/><rect class="b" x="362.63" y="292.98" width="15.08" height="15.08"/><rect class="b" x="352.77" y="320.82" width="27.83" height="27.83"/><path class="b" d="M362.87,265.88H237.12c-6.75-2.56-8.5-5.12-8.5-12.47v-137c0-6.64,4.28-10.91,10.94-10.92H249a12.61,12.61,0,0,1,0-2.14,29.44,29.44,0,0,1,1.38-6.19c1.28-3,4.09-4.36,7.1-5.26h3.4a3.67,3.67,0,0,0,.6.29c5,1.42,7.86,5.09,7.89,10.29,0,1,0,2,0,2.93h20.4a11.93,11.93,0,0,1,0-2.08,30,30,0,0,1,1.37-6.18c1.29-3,4.1-4.36,7.11-5.25h3.4a3.67,3.67,0,0,0,.6.29,10.12,10.12,0,0,1,7.89,10.29c0,1,0,2,0,2.93h20.4a12,12,0,0,1,0-2.08A30,30,0,0,1,332,97.13c1.29-3,4.09-4.36,7.1-5.25h3.4a3.67,3.67,0,0,0,.6.29c5.05,1.43,7.86,5.09,7.89,10.32,0,1,0,1.89,0,3h9.32c6.87,0,11.08,4.23,11.08,11.13v85.13q0,26.76,0,53.52c0,3.05-.88,5.81-3.22,7.73A31,31,0,0,1,362.87,265.88ZM235.42,139.46V254.61c0,3.34,1.14,4.47,4.49,4.47H360c3.46,0,4.54-1.1,4.54-4.59v-115h-48.8c-2.42-.05-4-1.55-3.93-3.72.05-1.86,1.62-3.15,3.9-3.15h48.75c0-5.77,0-11.26,0-16.75a3.21,3.21,0,0,0-3.09-3.43c-3.38-.13-6.76,0-10.33,0,0,1.2,0,2.26,0,3.33a10.27,10.27,0,0,1-20.54,0c0-1.1,0-2.21,0-3.26H310.27v3.14a10.27,10.27,0,1,1-20.54.06c0-1.06,0-2.12,0-3.18H269.48c0,1.2,0,2.28,0,3.35a10.27,10.27,0,0,1-20.53-.06c0-1.11,0-2.22,0-3.41-3.54,0-6.82-.08-10.09,0-2.1.07-3.33,1.52-3.35,3.74,0,5.15,0,10.31,0,15.46a6.18,6.18,0,0,0,.18,1h14.52c11.27,0,22.54,0,33.81.06,1.15,0,4.41,0,4.41,3.41,0,2.72-2.6,3.41-4.15,3.4q-9.67,0-19.37,0Zm20.41-30.68c0,2.2,0,4.41,0,6.61a3.38,3.38,0,1,0,6.74.11c0-4.41,0-8.82,0-13.23a3.38,3.38,0,1,0-6.74.07C255.8,104.48,255.83,106.63,255.83,108.78Zm40.79,0c0,2.21,0,4.41,0,6.62A3.42,3.42,0,0,0,300,119a3.37,3.37,0,0,0,3.33-3.55c0-4.41.05-8.82,0-13.23A3.33,3.33,0,0,0,300,98.72a3.37,3.37,0,0,0-3.42,3.62C296.58,104.49,296.62,106.64,296.62,108.78Zm47.54.09c0-2,0-4.07,0-6.1,0-2.52-1.27-4-3.34-4s-3.41,1.5-3.42,4q0,6.27,0,12.55c0,2.28,1.42,3.83,3.42,3.8s3.3-1.54,3.32-3.73S344.16,111,344.16,108.87Z"/><path class="b" d="M300,132.6a3.41,3.41,0,0,1,3.45,3.22,3.46,3.46,0,1,1-6.91,0A3.4,3.4,0,0,1,300,132.6Z"/><path class="b" d="M265.17,174.49,252.58,185l-7.7-9.82,22.3-17.47h13.33v75.51H265.17Z"/><path class="b" d="M344.82,159,343,171.36a33.63,33.63,0,0,0-6.59-2.31,27.2,27.2,0,0,0-6.26-.83,17.68,17.68,0,0,0-9.45,2.61,16,16,0,0,0-6.4,7.62,36.13,36.13,0,0,0-2.42,12.93,14.84,14.84,0,0,1,5.68-5.37,17.64,17.64,0,0,1,8.87-2.17,22.83,22.83,0,0,1,11.44,2.86,19.21,19.21,0,0,1,7.92,9,32.67,32.67,0,0,1,2.84,13.81,28.89,28.89,0,0,1-3,13.24,19.49,19.49,0,0,1-8.81,8.82,29.76,29.76,0,0,1-13.54,3c-5.53,0-10.14-1.18-13.86-3.53s-6.74-6.17-9.06-11.45-3.47-12.07-3.47-20.39a71.43,71.43,0,0,1,2.65-19.91,36.77,36.77,0,0,1,5.79-12,26.27,26.27,0,0,1,8.76-7.72,30.86,30.86,0,0,1,14.76-3.4A47,47,0,0,1,344.82,159Zm-32.08,49.7a20.92,20.92,0,0,0,1.28,6.93,11.59,11.59,0,0,0,3.77,5.55,8.74,8.74,0,0,0,5.41,1.91,9.12,9.12,0,0,0,7.12-3.64q3.07-3.63,3.08-9.85a19.12,19.12,0,0,0-1.46-7.56,10.7,10.7,0,0,0-3.9-5,9.59,9.59,0,0,0-5.26-1.56,8.44,8.44,0,0,0-7.38,3.9A16.17,16.17,0,0,0,312.74,208.74Z"/></svg>