<svg xmlns="http://www.w3.org/2000/svg" viewBox="0 0 600 600"><defs><style>.a{fill:#fff;}.b{fill:#3a5a6f;}.c{fill:#4c4c4c;}</style></defs><title>Table_icon</title><rect class="a" x="135.68" y="107.69" width="319.57" height="418.15" rx="23.77"/><rect class="b" x="261.92" y="12.12" width="67.09" height="191.16" rx="17.98" transform="translate(403.16 -187.77) rotate(90)"/><rect class="a" x="207.16" y="81.43" width="176.59" height="52.52" rx="10.7"/><rect class="c" x="156.53" y="210.35" width="181.23" height="6.89" rx="2.88"/><rect class="c" x="156.53" y="233.78" width="181.23" height="6.89" rx="2.88"/><rect class="c" x="156.53" y="257.2" width="181.23" height="6.89" rx="2.88"/><rect class="c" x="157.25" y="381.64" width="181.23" height="6.89" rx="2.88"/><rect class="c" x="157.25" y="405.07" width="181.23" height="6.89" rx="2.88"/><rect class="c" x="157.25" y="428.5" width="181.23" height="6.89" rx="2.88"/><rect class="b" x="355.53" y="198.48" width="77.47" height="77.48" rx="23.22" transform="translate(631.49 -157.05) rotate(90)"/><rect class="a" x="362.82" y="205.77" width="62.91" height="62.91" rx="15.93"/><rect class="b" x="355.53" y="366.33" width="77.47" height="77.48" rx="23.22" transform="translate(799.34 10.8) rotate(90)"/><rect class="a" x="362.82" y="373.61" width="62.91" height="62.91" rx="15.93"/></svg>