<svg xmlns="http://www.w3.org/2000/svg" viewBox="0 0 600 600"><defs><style>.a{fill:#fff;}.b{fill:#4c4c4c;}</style></defs><title>File_icon</title><rect class="a" x="133.34" y="70.21" width="373.27" height="459.57" rx="32.79"/><circle class="b" cx="408.7" cy="117.48" r="22.51"/><path class="b" d="M399.64,147.79h18.13a27.65,27.65,0,0,1,27.65,27.65v9.79a4.79,4.79,0,0,1-4.79,4.79H376.78a4.79,4.79,0,0,1-4.79-4.79v-9.79A27.65,27.65,0,0,1,399.64,147.79Z"/><rect class="b" x="163.82" y="109.21" width="166.2" height="10.47" rx="4.44"/><rect class="b" x="163.82" y="142.68" width="166.2" height="10.47" rx="4.44"/><rect class="b" x="163.82" y="176.15" width="166.2" height="10.47" rx="4.44"/><rect class="b" x="163.82" y="209.62" width="312.31" height="10.47" rx="5.23"/><rect class="b" x="163.82" y="243.08" width="312.31" height="10.47" rx="5.23"/><rect class="b" x="163.82" y="276.55" width="312.31" height="10.47" rx="5.23"/><rect class="b" x="163.82" y="310.02" width="312.31" height="10.47" rx="5.23"/><rect class="b" x="163.82" y="343.49" width="312.31" height="10.47" rx="5.23"/><rect class="b" x="163.82" y="376.96" width="312.31" height="10.47" rx="5.23"/><rect class="b" x="163.82" y="410.43" width="312.31" height="10.47" rx="5.23"/><rect class="b" x="163.82" y="443.89" width="312.31" height="10.47" rx="5.23"/><rect class="b" x="163.82" y="477.36" width="312.31" height="10.47" rx="5.23"/></svg>