<svg xmlns="http://www.w3.org/2000/svg" viewBox="0 0 600 600"><defs><style>.a{fill:#fff;}.b{fill:#3a5a6f;}</style></defs><title>Medical_icon</title><circle class="a" cx="300" cy="300" r="254.19"/><path class="b" d="M471.92,274.36V324.2a17.69,17.69,0,0,1-17.7,17.69H342.62V454.22a17.71,17.71,0,0,1-17.71,17.7H274.36a17.7,17.7,0,0,1-17.7-17.7V341.89H145.78a17.69,17.69,0,0,1-17.7-17.69V274.36a17.69,17.69,0,0,1,17.7-17.7H256.66V145.78a17.7,17.7,0,0,1,17.7-17.7h50.55a17.71,17.71,0,0,1,17.71,17.7V256.66h111.6A17.69,17.69,0,0,1,471.92,274.36Z"/></svg>