<svg xmlns="http://www.w3.org/2000/svg" viewBox="0 0 600 600"><defs><style>.a{fill:#ffca36;}.b{fill:#fff;}</style></defs><title>Icon_ASK</title><circle class="a" cx="300" cy="300" r="269.25"/><polygon class="b" points="392.78 361.47 392.78 512.24 185.76 512.24 185.76 305.22 341.11 305.22 341.17 361.47 392.78 361.47"/><ellipse class="a" cx="234.47" cy="424.1" rx="19.72" ry="28.41"/><ellipse class="a" cx="343.49" cy="424.1" rx="19.72" ry="28.41"/><rect class="b" x="392.2" y="307.54" width="22.04" height="22.04"/><rect class="b" x="362.63" y="297.1" width="15.08" height="15.08"/><rect class="b" x="352.77" y="324.94" width="27.83" height="27.83"/><path class="b" d="M310,201c0-1.75.14-3.32,0-4.86-.82-7.68,2.22-14,7.45-19.14,4-4,8.68-7.38,13-11.05,4.93-4.14,10.29-7.88,14.68-12.54,21.43-22.76,10.28-58.31-15.49-68.09a79.87,79.87,0,0,0-55.9-.86c-12.54,4.32-21.8,12.75-28,24.47a17.66,17.66,0,0,0,14.94,26.21c7.76.23,13.36-3.45,16.79-10.35,3-6,7.08-10.77,13.6-13,12.89-4.44,24.62,2.42,26.36,15.51a17.86,17.86,0,0,1-4.53,14.45,115.21,115.21,0,0,1-16,15.24c-14.91,11.26-19.24,26.25-17.06,44Zm-14.82,14c-10.92,0-18.76,7.33-18.75,17.55,0,10.05,7.89,17.46,18.55,17.48,10.82,0,18.86-7.51,18.81-17.59S305.78,215,295.14,215Z"/><path class="b" d="M215.51,211.58a25.3,25.3,0,0,0,0-2.62c-.44-4.14,1.2-7.53,4-10.32,2.18-2.15,4.68-4,7-6a90.15,90.15,0,0,0,7.92-6.76c11.56-12.27,5.54-31.44-8.36-36.72a43.08,43.08,0,0,0-30.14-.46,26.45,26.45,0,0,0-15.09,13.2,9.53,9.53,0,0,0,8.06,14.13,9.23,9.23,0,0,0,9.05-5.58c1.61-3.23,3.82-5.81,7.34-7,6.95-2.4,13.27,1.3,14.21,8.36a9.61,9.61,0,0,1-2.44,7.79,62.08,62.08,0,0,1-8.63,8.22c-8,6.07-10.38,14.15-9.2,23.74Zm-8,7.53c-5.89,0-10.12,4-10.11,9.47s4.26,9.41,10,9.42,10.17-4.05,10.15-9.49S213.26,219.12,207.52,219.11Z"/><path class="b" d="M395.23,212a25.3,25.3,0,0,0,0-2.62,12.23,12.23,0,0,1,4-10.32c2.18-2.16,4.69-4,7-6,2.65-2.24,5.55-4.25,7.91-6.76,11.56-12.28,5.55-31.45-8.35-36.72a43,43,0,0,0-30.14-.46,26.4,26.4,0,0,0-15.09,13.19,9.53,9.53,0,0,0,8,14.14,9.24,9.24,0,0,0,9.06-5.58c1.61-3.24,3.81-5.81,7.33-7,6.95-2.39,13.28,1.31,14.21,8.37a9.57,9.57,0,0,1-2.44,7.79,62,62,0,0,1-8.62,8.22c-8,6.07-10.38,14.15-9.2,23.74Zm-8,7.53c-5.89,0-10.12,3.95-10.11,9.46s4.25,9.42,10,9.43,10.17-4,10.14-9.49S393,219.54,387.24,219.53Z"/></svg>