<svg xmlns="http://www.w3.org/2000/svg" viewBox="0 0 600 600"><defs><style>.a{fill:#e55555;}.b{fill:#fff;}</style></defs><title>Icon_SGS</title><circle class="a" cx="300" cy="300" r="269.25"/><path class="b" d="M337.69,87.76c4.25,2.22,8.48,4.48,12.76,6.65,7.49,3.79,15,7.57,22.53,11.26a5.65,5.65,0,0,1,3.53,5.71c-.2,12.17-.08,24.35-.57,36.51a116.31,116.31,0,0,1-6.86,33.64c-1,2.83-3.13,4.14-5.45,3.46-2.55-.75-3.82-3.15-2.76-6,7.65-20.91,7.16-42.68,6.85-64.42A3.51,3.51,0,0,0,366,112q-14.8-7.59-29.75-14.92a7.68,7.68,0,0,0-3.34-.62q-32.9-.06-65.8,0a9,9,0,0,0-3.85.9q-14.42,7.08-28.73,14.38c-1,.5-2.19,1.84-2.18,2.78.18,12.74-.35,25.58,1.05,38.2,3.75,33.72,19.32,61.35,45.63,82.72,5.81,4.72,12.49,8.37,18.7,12.6,1.72,1.17,3.06.89,4.75-.05a124.91,124.91,0,0,0,49.14-48.74c.47-.84.91-1.7,1.4-2.53,1.62-2.7,4-3.52,6.28-2.18s2.88,3.75,1.34,6.3c-3.55,5.86-7,11.83-11,17.34a131.67,131.67,0,0,1-46,39,6.78,6.78,0,0,1-7.07.05c-42.64-23.44-66.89-59.4-72.28-107.64-1.44-12.9-.58-26.06-.74-39.1,0-2.57,1.55-3.93,3.72-5,10.82-5.34,21.6-10.76,32.38-16.17.91-.46,1.74-1.1,2.61-1.65Z"/><path class="b" d="M282.27,141.65c0-7.16,0-13.91,0-20.67,0-5.3,1.22-6.52,6.44-6.52q11.75,0,23.48,0c4.08,0,5.61,1.51,5.64,5.6,0,7,0,14.09,0,21.59h2.94c6.28,0,12.56,0,18.84,0,3.68,0,5.23,1.42,5.26,5q.11,12.75,0,25.5c0,3.42-1.62,4.9-5.05,4.92-6.28,0-12.56,0-18.84,0h-3.14V197c0,6.26-1,7.27-7.19,7.27-7.54,0-15.08,0-22.61,0-4.26,0-5.73-1.48-5.76-5.77,0-6,0-12,0-18v-3.45H264.36c-1.45,0-2.9,0-4.35,0-3.2-.09-4.76-1.6-4.79-4.86q-.08-12.9,0-25.8c0-3.23,1.6-4.73,4.88-4.75C267.34,141.62,274.57,141.65,282.27,141.65Zm8.7-18.34V143.1c0,6.28-1,7.24-7.17,7.24H264.1v18h20.73c4.84,0,6.12,1.3,6.14,6.22,0,4.64,0,9.28,0,13.91v6.83h18.17c0-7.26,0-14.3,0-21.34,0-4.15,1.44-5.59,5.53-5.62s8.12,0,12.18,0h9.2v-18H315.12c-4.63,0-6-1.37-6-6.08,0-1.64,0-3.28,0-4.92v-16Z"/><polygon class="b" points="392.78 361.47 392.78 512.24 185.76 512.24 185.76 305.22 341.11 305.22 341.17 361.47 392.78 361.47"/><ellipse class="a" cx="234.47" cy="424.1" rx="19.72" ry="28.41"/><ellipse class="a" cx="343.49" cy="424.1" rx="19.72" ry="28.41"/><rect class="b" x="392.2" y="307.54" width="22.04" height="22.04"/><rect class="b" x="362.63" y="297.1" width="15.08" height="15.08"/><rect class="b" x="352.77" y="324.94" width="27.83" height="27.83"/></svg>