<svg xmlns="http://www.w3.org/2000/svg" xmlns:xlink="http://www.w3.org/1999/xlink" viewBox="0 0 595.28 157.55"><defs><style>.a{fill:#101e2e;}.b{fill:url(#a);}.c{fill:url(#b);}.d{fill:url(#c);}.e{fill:url(#d);}.f{fill:#12273c;}.g{fill:#fefeff;}</style><linearGradient id="a" x1="25.51" y1="77.9" x2="103.09" y2="77.9" gradientUnits="userSpaceOnUse"><stop offset="0" stop-color="#0c6694"/><stop offset="0.27" stop-color="#0e5f8e"/><stop offset="0.74" stop-color="#0b5382"/><stop offset="1" stop-color="#0d4979"/></linearGradient><linearGradient id="b" x1="110.89" y1="79.09" x2="195.61" y2="79.09" xlink:href="#a"/><linearGradient id="c" x1="265.01" y1="77.88" x2="355.95" y2="77.88" xlink:href="#a"/><linearGradient id="d" x1="190.2" y1="78.44" x2="265.11" y2="78.44" xlink:href="#a"/></defs><title>Logo_Rushtec_02</title><path class="a" d="M569.77,47.87v.37c-2,1.56-3.68,3.41-5.52,5.11-2.28,2.11-4.43,4.37-6.8,6.39-2.09,1.76-3.88,3.83-5.9,5.64-.46.42-.69.42-1.13,0a15.79,15.79,0,0,0-8.63-4.07c-.75-.1-1.51-.09-2.26-.13A19.82,19.82,0,0,0,529,64.92a11.53,11.53,0,0,0-3.3,2.92c-4,4.85-5.06,10.58-4.64,16.65a12.46,12.46,0,0,0,4.31,8.5,14.25,14.25,0,0,0,9.3,3.16,23.12,23.12,0,0,0,4.52-.71,32.46,32.46,0,0,0,10.26-5.19c.49-.35.74-.35,1.09.18q5.93,8.94,11.88,17.85c.16.24.55.49,0,.8-3.95,2.29-7.7,5-11.91,6.81a56.92,56.92,0,0,1-9.79,3.21,6.6,6.6,0,0,1-.75.08,1.09,1.09,0,0,1-.23.09l-.38,0a37.53,37.53,0,0,1-7.53.91,32.22,32.22,0,0,1-6.65-.34,40.26,40.26,0,0,1-10.85-2.71c-.81-.31-1.59-.7-2.38-1.06a29.53,29.53,0,0,1-10-7.13,29,29,0,0,1-6.76-11.66,43.29,43.29,0,0,1-1.93-13.42,2.38,2.38,0,0,1,1.29-2.15c2.41-1.45,4.85-2.86,7.38-4.1l10.05-5.83c.56-.38,1.12-.78,1.71-1.12s.62-.47.18-.94c-.61-.66-1.13-1.4-1.7-2.11q-5-5.69-10-11.39c-.22-.25-.33-.42-.07-.71a57.33,57.33,0,0,1,10.21-9.84,38.18,38.18,0,0,1,11.81-5.95c.42-.13.84-.23,1.25-.34,4.66-1.27,9.31-2.46,14.19-2.31a36.71,36.71,0,0,1,14.12,1.71A39.43,39.43,0,0,1,567.54,46Z"/><path class="b" d="M93.9,104.84q-4.34-9.09-8.71-18.14c-.3-.62-.19-.88.4-1.1.77-.28,1.54-.58,2.29-.92a20.34,20.34,0,0,0,5.17-3,17.29,17.29,0,0,0,4.76-4.92c4.81-6.88,6.47-14.43,4.42-22.62-1.34-5.36-4.63-9.41-9.12-12.52-2.72-2.07-5.94-2.94-9.14-3.84a48.89,48.89,0,0,0-11.94-1c-.75,0-1.5-.07-2.25-.08-3,0-5.94-.11-8.91,0-3.78-.18-7.56-.05-11.34,0a36.42,36.42,0,0,0-4.9,0c-3.36.26-4.48,1.17-5.34,4.41-.49,1.84-.87,3.71-1.22,5.59a11,11,0,0,0,2,9.09C42.7,59.3,44.94,63,47.29,66.61c.42.64.37.88-.24,1.28-2.52,1.66-5.12,3.19-7.55,5a32.7,32.7,0,0,0-3.59,2.59A10.36,10.36,0,0,0,32.2,81.2c-.47,1.88-.85,3.79-1.19,5.7q-1.8,10.23-3.55,20.47-.95,5.46-1.9,10.93c-.07.45-.19.85.56.85,4.59,0,9.18,0,13.77-.06,3.06.13,6.12,0,9.18-.11a.79.79,0,0,0,.86-.56,3.46,3.46,0,0,0,1.33-2c.28-1.27.57-2.54.78-3.83.42-2.65.87-5.29,1.33-7.93.53-3,1.13-6.09,1.66-9.14.35-2,.61-4.1,2.11-5.72.32-.34.45-.46.87-.14,1.14.89,2.33,1.7,2.82,3.16a2.22,2.22,0,0,0,.09.37q4.58,11.49,8.73,23.14c.86,2.4,2.15,3.14,4.83,2.85l9.46,0h16.7c-.09-.23-.15-.37-.21-.51Q97.16,111.71,93.9,104.84Zm-19.63-35c-1.89,1.44-4.16,1.65-6.38,1.94s-4.3.44-6.45.65c-.47,0-.94.05-1.4.12-.63.1-.72-.12-.61-.72.62-3.28,1.2-6.56,1.79-9.85a1.28,1.28,0,0,0,0-.19c.15-.91.35-1.82.43-2.75,0-.38.13-.47.47-.48a42.5,42.5,0,0,1,9.09.2L72,59C76.74,60.86,77.76,65.83,74.27,69.87Z"/><path class="c" d="M195.09,36.89l-12.85,0h-10.4c-1.74-.13-1.8-.14-2.15,1.54-.65,3.16-1.23,6.34-1.8,9.51-1.69,9.28-3.34,18.56-5,27.83-.64,3.51-1.34,7-2,10.52-.38,1.29-.75,2.58-1.14,3.86a10.88,10.88,0,0,1-5.24,6.7,15.18,15.18,0,0,1-4.19,1.34c-.79,0-1.58.06-2.36,0-2.3-.16-4.58-.45-6.49-1.92a9.21,9.21,0,0,1-3.05-5.18,18.7,18.7,0,0,1-.11-7.11c1.25-7.33,2.7-14.62,4-21.94,1.42-8.19,2.74-16.4,4.12-24.59.08-.44.06-.63-.45-.62l-14.54,0h-9.08c-1.83-.13-1.9-.14-2.24,1.77q-2.22,12.74-4.37,25.49c-1.38,8.23-2.7,16.46-4.09,24.69a31.08,31.08,0,0,0-.26,11.77,21.82,21.82,0,0,0,11,14.92,30.63,30.63,0,0,0,9.07,3.79,37.64,37.64,0,0,0,9.65,1.68c.14.06.28.18.42.18,3,0,6,.19,9-.06.65,0,1.31-.06,2-.13a39.89,39.89,0,0,0,8.81-1.69c.28-.06.55-.11.82-.19a33.34,33.34,0,0,0,10.2-5.06c.27,0,.31-.27.48-.39A30.33,30.33,0,0,0,182.59,102a33.09,33.09,0,0,0,3-7.63,96.37,96.37,0,0,0,2.29-11c1.25-6.92,2.37-13.86,3.53-20.79Q193.5,50,195.59,37.48C195.67,37,195.55,36.88,195.09,36.89Z"/><path class="d" d="M355.39,36.69c-4.28,0-8.56,0-12.85.06-3-.09-6,0-9.07.06-.47,0-.94,0-1.41-.05a2.39,2.39,0,0,0-2.47,1.35,5,5,0,0,0-.64,1.66c-.89,5.11-1.73,10.24-2.68,15.35-.54,2.88-.77,5.83-1.87,8.59a3.12,3.12,0,0,1-3.18,1.76,40.4,40.4,0,0,0-4.39.14l-7,0-3.58-.06h-4.91c-.26,0-.68.08-.56-.37a32.09,32.09,0,0,0,.63-3.5c.37-2.43.91-4.83,1.25-7.26.41-2.93.95-5.84,1.35-8.78s1-5.61,1.49-8.41c.09-.45-.12-.54-.5-.54-1.92,0-3.84,0-5.76,0H289.8c-1.72,0-3.43-.08-5.15-.1-1.27,0-2.57-.3-3.76.37-1.56.7-1.94,2.15-2.23,3.6-.45,2.31-.8,4.64-1.21,6.95q-2.59,14.69-5.2,29.37-2.82,15.94-5.6,31.88c-.55,3.15-1.06,6.31-1.58,9.47-.07.43-.2.86.55.85,5.1-.07,10.2.12,15.3-.06a68.42,68.42,0,0,0,6.87-.07c.67,0,1.39.22,2-.23a4.42,4.42,0,0,0,1.94-2.78c.65-3.46,1.23-6.94,1.9-10.4.71-3.64,1.35-7.3,2.09-10.93.35-1.69.57-3.4.89-5.09.28-1.49.65-1.8,2.17-2a3.4,3.4,0,0,0,.46-.09c3,.17,6,0,9,.07a3.82,3.82,0,0,0,1.58-.1,58.39,58.39,0,0,0,7,0c1,0,2.07.07,3.11.07.46,0,.62,0,.51.6-1.08,6.2-2.12,12.42-3.17,18.63q-1,5.85-2,11.68c-.09.5,0,.66.52.66,3,0,6,0,9-.05h8.69l6.22-.13a1.49,1.49,0,0,0,1-.58,5.11,5.11,0,0,0,1.34-2.34c.33-1.53.56-3.08.83-4.62a1.27,1.27,0,0,0,.06-.18c.56-3.21,1-6.45,1.7-9.64.61-2.9,1.13-5.81,1.66-8.73,1.56-8.64,3.07-17.29,4.65-25.93,1.8-9.84,3.31-19.73,5-29.59C356,36.88,355.93,36.69,355.39,36.69Z"/><path class="e" d="M242.16,57.85A25.37,25.37,0,0,1,249.24,62c.25.2.43.3.69,0,.82-.94,1.67-1.86,2.5-2.78a2.31,2.31,0,0,0,.29-.24c1.8-2,3.51-4.07,5.41-6,2.34-2.32,4.48-4.81,6.78-7.17.29-.3.25-.46-.08-.71a46,46,0,0,0-22.67-8.58,37,37,0,0,0-10.77.18,41.23,41.23,0,0,0-11.56,2.95,26.81,26.81,0,0,0-9.24,5.91c-5.89,5.77-9.39,12.56-8.69,21a20.57,20.57,0,0,0,8.7,15.2,28.79,28.79,0,0,0,9.26,4.68,78,78,0,0,1,8.47,3.35,17,17,0,0,1,2.33,1.71,3.89,3.89,0,0,1-.21,6,8.68,8.68,0,0,1-2.27,1.3c-.46.11-.91.23-1.37.32a20,20,0,0,1-7.89,0,29.76,29.76,0,0,1-10.49-5.21c-.45-.35-1.1-1.39-1.74-.1q-8.1,7.47-16.22,14.92c-.52.47-.17.67.13.94a39.56,39.56,0,0,0,16.4,8.69,49.68,49.68,0,0,0,11.91,2,39.29,39.29,0,0,0,9.26-.14,37.53,37.53,0,0,0,8.15-1.43,30.65,30.65,0,0,0,7.36-2.69l2.31-1.26c8.17-4.62,12.7-11.51,13.23-20.94.47-8.51-2.86-15-10.09-19.6a54.45,54.45,0,0,0-5.44-2.76,69.14,69.14,0,0,0-7.39-2.78c-1.32-.55-2.63-1.17-4-1.63A5.24,5.24,0,0,1,228.77,64a5.1,5.1,0,0,1,2.84-5.69,1.93,1.93,0,0,1-.22-1,1.93,1.93,0,0,0,.22,1A15.56,15.56,0,0,1,242.16,57.85Z"/><path class="f" d="M418.16,36.77h-41.4c-4.12,0-8.24,0-12.36,0-.47,0-.63.13-.71.61-.78,4.7-1.6,9.38-2.41,14.08-.5,2.88-1,5.76-1.48,8.68h20.64c-.23,1.53-.44,2.95-.65,4.37a16,16,0,0,0-.53,2.83c-.18,1-.37,2.1-.56,3.15-.83,4.68-1.67,9.37-2.49,14.06q-1.84,10.56-3.68,21.12-1.15,6.62-2.33,13.24c-.06.36-.15.67.43.66,2.86,0,5.73-.08,8.59-.11H380l10.2.07c1.17,0,2.33.05,3.5.05,2.69,0,3.81-1,4.25-3.61,1-6,2-12,3.06-18.06,1.59-9.13,3.22-18.25,4.83-27.37.35-1.47.43-3,.7-4.47s.66-3.24.86-4.88c.1-.77.3-1.21,1.28-1.19,3.16,0,6.33.24,9.5.06,2.29,0,4.59,0,6.87-.12A3.7,3.7,0,0,0,428.17,57c.55-2.85,1.11-5.71,1.62-8.57.68-3.85,1.32-7.71,2-11.61Z"/><path class="f" d="M492.73,36.68l-11.24.06c-3.34-.09-6.68-.08-10,0-4.28-.09-8.57-.08-12.85,0-3.91-.09-7.82-.08-11.73,0l-6.22-.05c-1.32,0-1.29,0-1.52,1.33Q437.34,48.49,435.49,59t-3.71,21.2q-1.93,11.07-3.88,22.13-1.38,7.83-2.74,15.65c-.15.89.19,1.34,1,1.35l20.69,0H456l9.26,0c3,.07,5.93.08,8.89,0,2,0,4,.06,6,0a2.43,2.43,0,0,0,2.29-2c.54-2.64,1.11-5.26,1.62-7.9.69-3.59,1.5-7.16,2-10.78.07-.09.14-.18-.05-.21-4-.13-7.93-.07-11.9,0H453.67c.73-3.54,1.43-6.94,2.11-10.35a.64.64,0,0,1,.76-.6c.88,0,1.76,0,2.64,0,4.73.07,9.46.08,14.18,0,3.18,0,6.35,0,9.53.08.8,0,1.08-.25,1.23-1,.53-2.73,1.19-5.44,1.65-8.18a32.12,32.12,0,0,0,.8-5.45c0-.16-.05-.14-.16-.09-4.35-.07-8.7-.09-13.05,0-.87,0-1.75-.05-2.62-.05l-11.55.06c-.64,0-.9-.19-.66-.92.29-.9.42-1.85.62-2.78.37-1.49.67-3,1.19-4.45.79-2.19,2.13-3.64,4.56-4,2.18-.29,4.38-.13,6.57-.31,1.66,0,3.31,0,5,0a40.52,40.52,0,0,0,5.05,0c1.64,0,3.28.06,4.91,0a3.33,3.33,0,0,0,3.35-2.7c1-4.85,1.7-9.75,2.5-14.63.3-1.86.63-3.71.91-5.56C493.21,37.26,493.59,36.67,492.73,36.68Z"/><path class="g" d="M61.21,61.82c.15-.91.35-1.82.43-2.75,0-.38.13-.47.47-.48a42.5,42.5,0,0,1,9.09.2L72,59c4.71,1.9,5.73,6.87,2.24,10.91-1.89,1.44-4.16,1.65-6.38,1.94s-4.3.44-6.45.65c-.47,0-.94.05-1.4.12-.63.1-.72-.12-.61-.71.62-3.29,1.2-6.57,1.79-9.86A1.28,1.28,0,0,0,61.21,61.82Z"/></svg>